<svg xmlns="http://www.w3.org/2000/svg" width="350" height="350" viewBox="0 0 350 350"><defs><style>.cls-1,.cls-2,.cls-3{fill:none;stroke-linecap:round;stroke-linejoin:round;stroke-width:7px;fill-rule:evenodd}.cls-1{stroke:#1f96c8}.cls-2{stroke:#f2fafb}.cls-3{stroke:#ed1262}</style></defs><g id="Care"><g id="Care-2" data-name="Care"><g id="Hands"><g id="R"><path id="Shape_8_copy_3" data-name="Shape 8 copy 3" class="cls-1" d="M1101.3 903.32c.01.1.18-36.636 0-62.292-.18-27.32 21.73-46.02 39.94-50.154 15.85-3.6 31.92-13.455 38.14-18.352s15.65-5.74 15.65-5.74.55-35.654 3.77-47.67c6.79-25.31 20.63-13.84 20.63-13.84s6.1 85.114-3.5 101.15c-11.9 19.87-64.19 42-64.19 50.756v46.14h-50.44z" transform="translate(-900 -566)"/><path class="cls-1" d="M1197.19 768.944s8.17 10.964-18.34 29.2c-16.32 11.228-15.65 16.4-21.57 21.627" transform="translate(-900 -566)"/></g><g id="L"><path id="Shape_8_copy_3-2" data-name="Shape 8 copy 3" class="cls-1" d="M1048.17 902.506c0 .1-.17-36.582 0-62.2.19-27.28-21.81-45.956-40.09-50.083-15.918-3.593-32.05-13.435-38.29-18.325s-15.718-5.733-15.718-5.733-.546-35.6-3.783-47.6c-6.82-25.276-20.715-13.823-20.715-13.823s-6.122 84.994 3.52 101.007c11.946 19.84 64.444 41.942 64.444 50.682v46.075h50.63z" transform="translate(-900 -566)"/><path class="cls-1" d="M951.907 768.324s-8.2 10.948 18.41 29.154c16.387 11.212 15.718 16.373 21.66 21.6" transform="translate(-900 -566)"/></g></g><g id="Diamond"><g id="Small_lines" data-name="Small lines"><path id="Polygon_1_copy" data-name="Polygon 1 copy" class="cls-2" d="M1034.1 715.037l-22.22-26.868" transform="translate(-900 -566)"/></g><path id="Polygon_1" data-name="Polygon 1" class="cls-3" d="M1152.12 683.057l-76.44 95.218-77.78-95.218 47.946-29.885h57.88z" transform="translate(-900 -566)"/><path class="cls-3" d="M1002.1 684.03h145.38" transform="translate(-900 -566)"/><path id="Shape_9_copy" data-name="Shape 9 copy" class="cls-3" d="M1103.81 657.222l10.21 27.59-37.26 87.84" transform="translate(-900 -566)"/><path id="Shape_9_copy_2" data-name="Shape 9 copy 2" class="cls-3" d="M1047.61 656.488l-9.91 28.175 37.58 87.99" transform="translate(-900 -566)"/></g><g id="Rays"><path class="cls-1" d="M1074.42 625.547v-48.883" transform="translate(-900 -566)"/><path id="Shape_6_copy" data-name="Shape 6 copy" class="cls-1" d="M1100.35 625.484l8.94-33.445" transform="translate(-900 -566)"/><path id="Shape_6_copy_2" data-name="Shape 6 copy 2" class="cls-1" d="M1041.96 625.548l-8.17-32.617" transform="translate(-900 -566)"/><path id="Shape_6_copy_3" data-name="Shape 6 copy 3" class="cls-1" d="M1014.36 634.205l-14.715-15.55" transform="translate(-900 -566)"/><path id="Shape_6_copy_4" data-name="Shape 6 copy 4" class="cls-1" d="M1134.93 633.7l15.19-15.552" transform="translate(-900 -566)"/></g></g></g></svg>