<?xml version="1.0" encoding="utf-8"?>
<!-- Generator: Adobe Illustrator 22.0.1, SVG Export Plug-In . SVG Version: 6.00 Build 0)  -->
<svg version="1.1" id="Layer_1" xmlns="http://www.w3.org/2000/svg" xmlns:xlink="http://www.w3.org/1999/xlink" x="0px" y="0px"
	 viewBox="0 0 921.1 558.4" style="enable-background:new 0 0 921.1 558.4;" xml:space="preserve">
<style type="text/css">
	.st0{display:none;fill:none;stroke:#AAAAAA;}
	.st1{fill:#E31A1C;}
	.st2{fill:#1F78B4;}
	.st3{fill:#B2DF8A;}
	.st4{fill:#FF7F00;}
	.st5{fill:#33A02C;}
	.st6{fill:none;stroke:#000000;}
	.st7{display:none;}
	.st8{display:inline;}
	.st9{clip-path:url(#SVGID_3_);}
	.st10{clip-path:url(#SVGID_7_);}
	.st11{display:none;clip-path:url(#SVGID_8_);}
	.st12{fill-opacity:0.1;}
	.st13{clip-path:url(#SVGID_11_);}
	.st14{display:none;clip-path:url(#SVGID_12_);}
	.st15{fill:none;}
	.st16{opacity:0.5;fill:#E31A1C;}
	.st17{opacity:0.5;fill:#1F78B4;}
	.st18{opacity:0.5;fill:#33A02C;}
	.st19{opacity:0.5;fill:#FF7F00;}
</style>
<rect  fill="white" height="150%" style="cursor:default;font-family:Lato, &apos;Helvetica Neue&apos;, Arial, Helvetica, sans-serif;;height:auto;font-family:Lato, &apos;Helvetica Neue&apos;, Arial, Helvetica, sans-serif;" width="150%" x="-30px" xmlns="http://www.w3.org/1999/xhtml" y="-14px">
	</rect>
<g transform="translate(50.5,12.5)">
	<g>
		<g>
			<line class="st0" x1="409.7" y1="0" x2="409.7" y2="521"/>
		</g>
	</g>
	<g>
		<g>
			<g>
				<g>
					<path class="st1" d="M-21.9,478.6v-4.4h61.2v4.4H-21.9z"/>
					<path class="st1" d="M79.1,465.5v-14.5h61.2v14.5H79.1z"/>
					<path class="st1" d="M179.1,416.6v-10.2h61.2v10.2H179.1z"/>
					<path class="st1" d="M279.1,424.8v-10.2h61.2v10.2H279.1z"/>
					<path class="st1" d="M379.1,419v-20.4h61.2V419H379.1z"/>
					<path class="st1" d="M479.1,421.9V320.1h61.2v101.8H479.1z"/>
					<path class="st1" d="M579.1,416.1v-189h61.2v189H579.1z"/>
					<path class="st1" d="M679.1,424.8V77.3h61.2v347.5H679.1z"/>
					<path class="st1" d="M779.1,420.4V48.2h61.2v372.2H779.1z"/>
				</g>
			</g>
			<g>
				<g>
					<path class="st2" d="M-21.9,509.1v-30.5h61.2v30.5H-21.9z"/>
					<path class="st2" d="M79.1,507.6v-42.2h61.2v42.2H79.1z"/>
					<path class="st2" d="M179.1,467.5v-50.9h61.2v50.9H179.1z"/>
					<path class="st2" d="M279.1,466.9v-42.2h61.2v42.2H279.1z"/>
					<path class="st2" d="M379.1,459.7V419h61.2v40.7H379.1z"/>
					<path class="st2" d="M479.1,459.7v-37.8h61.2v37.8H479.1z"/>
					<path class="st2" d="M579.1,446.6v-30.5h61.2v30.5H579.1z"/>
					<path class="st2" d="M679.1,448v-23.3h61.2V448H679.1z"/>
					<path class="st2" d="M779.1,453.8v-33.4h61.2v33.4H779.1z"/>
				</g>
			</g>
			<g>
				<g>
					<path class="st3" d="M-21.9,520.7L-21.9,520.7h61.2l0,0H-21.9z"/>
					<path class="st3" d="M79.1,520.7L79.1,520.7h61.2l0,0H79.1z"/>
					<path class="st4" d="M279.1,520.7v-10.2h61.2v10.2H279.1z"/>
					<path class="st4" d="M379.1,520.7v-17.4h61.2v17.4H379.1z"/>
					<path class="st4" d="M479.1,520.7V496h61.2v24.7H479.1z"/>
					<path class="st4" d="M579.1,520.7v-30.5h61.2v30.5H579.1z"/>
					<path class="st4" d="M679.1,520.7v-34.9h61.2v34.9H679.1z"/>
					<path class="st4" d="M779.1,520.7v-32h61.2v32H779.1z"/>
				</g>
			</g>
			<g>
				<g>
					<path class="st5" d="M-21.9,520.7v-11.6h61.2v11.6H-21.9z"/>
					<path class="st5" d="M79.1,520.7v-13.1h61.2v13.1H79.1z"/>
					<path class="st5" d="M179.1,521.3v-53.8h61.2v53.8H179.1z"/>
					<path class="st5" d="M279.1,510.5v-43.6h61.2v43.6H279.1z"/>
					<path class="st5" d="M379.1,503.3v-43.6h61.2v43.6H379.1z"/>
					<path class="st5" d="M479.1,496v-36.3h61.2V496H479.1z"/>
					<path class="st5" d="M579.1,490.2v-43.6h61.2v43.6H579.1z"/>
					<path class="st5" d="M679.1,485.8V448h61.2v37.8H679.1z"/>
					<path class="st5" d="M779.1,488.7v-34.9h61.2v34.9H779.1z"/>
				</g>
			</g>
		</g>
		<g transform="translate(500.25,255.3611111111111)">
		</g>
	</g>
	<g transform="translate(0,520.7222222222222)">
		<g transform="translate(51, 0)">
			<path class="st6" d="M8.7,0"/>
		</g>
		<g transform="translate(152, 0)">
			<path class="st6" d="M8.7,0"/>
		</g>
		<g transform="translate(252, 0)">
			<path class="st6" d="M8.7,0"/>
		</g>
		<g transform="translate(352, 0)">
			<path class="st6" d="M8.7,0"/>
		</g>
		<g transform="translate(452, 0)">
			<path class="st6" d="M8.7,0"/>
		</g>
		<g transform="translate(552, 0)">
			<path class="st6" d="M8.7,0"/>
		</g>
		<g transform="translate(652, 0)">
			<path class="st6" d="M8.7,0"/>
		</g>
		<g transform="translate(752, 0)">
			<path class="st6" d="M8.7,0"/>
		</g>
		<g transform="translate(852, 0)">
			<path class="st6" d="M8.7,0"/>
		</g>
		<g transform="translate(952, 0)">
			<line class="st6" x1="8.7" y1="0" x2="8.7" y2="0"/>
		</g>
		<path class="st6" d="M958.2,6"/>
	</g>
	<g transform="translate(1000.5,0)" class="st7">
		<g transform="translate(0,521)">
			<line class="st6" x1="-42.3" y1="0" x2="-36.3" y2="0"/>
			<text transform="matrix(1 0 0 1 -33.3225 3)" class="st8" style="font-family:'Lato-Regular'; font-size:12px;">0</text>
		</g>
		<g transform="translate(0,469)">
			<line class="st6" x1="-42.3" y1="0" x2="-36.3" y2="0"/>
			<text transform="matrix(1 0 0 1 -33.3225 3)" class="st8" style="font-family:'Lato-Regular'; font-size:12px;">0.1</text>
		</g>
		<g transform="translate(0,417)">
			<line class="st6" x1="-42.3" y1="0" x2="-36.3" y2="0"/>
			<text transform="matrix(1 0 0 1 -33.3225 3)" class="st8" style="font-family:'Lato-Regular'; font-size:12px;">0.2</text>
		</g>
		<g transform="translate(0,365)">
			<line class="st6" x1="-42.3" y1="0" x2="-36.3" y2="0"/>
			<text transform="matrix(1 0 0 1 -33.3225 3)" class="st8" style="font-family:'Lato-Regular'; font-size:12px;">0.3</text>
		</g>
		<g transform="translate(0,313)">
			<line class="st6" x1="-42.3" y1="0" x2="-36.3" y2="0"/>
			<text transform="matrix(1 0 0 1 -33.3225 3)" class="st8" style="font-family:'Lato-Regular'; font-size:12px;">0.4</text>
		</g>
		<g transform="translate(0,261)">
			<line class="st6" x1="-42.3" y1="0" x2="-36.3" y2="0"/>
			<text transform="matrix(1 0 0 1 -33.3225 3)" class="st8" style="font-family:'Lato-Regular'; font-size:12px;">0.5</text>
		</g>
		<g transform="translate(0,209)">
			<line class="st6" x1="-42.3" y1="0" x2="-36.3" y2="0"/>
			<text transform="matrix(1 0 0 1 -33.3225 3)" class="st8" style="font-family:'Lato-Regular'; font-size:12px;">0.6</text>
		</g>
		<g transform="translate(0,157)">
			<line class="st6" x1="-42.3" y1="0" x2="-36.3" y2="0"/>
			<text transform="matrix(1 0 0 1 -33.3225 3)" class="st8" style="font-family:'Lato-Regular'; font-size:12px;">0.7</text>
		</g>
		<g transform="translate(0,105)">
			<line class="st6" x1="-42.3" y1="0" x2="-36.3" y2="0"/>
			<text transform="matrix(1 0 0 1 -33.3225 3)" class="st8" style="font-family:'Lato-Regular'; font-size:12px;">0.8</text>
		</g>
		<g transform="translate(0,53)">
			<line class="st6" x1="-42.3" y1="0" x2="-36.3" y2="0"/>
			<text transform="matrix(1 0 0 1 -33.3225 3)" class="st8" style="font-family:'Lato-Regular'; font-size:12px;">0.9</text>
		</g>
		<g transform="translate(0,1)">
			<line class="st6" x1="-42.3" y1="0" x2="-36.3" y2="0"/>
			<text transform="matrix(1 0 0 1 -33.3225 3)" class="st8" style="font-family:'Lato-Regular'; font-size:12px;">1</text>
		</g>
		<path class="st6" d="M-36.3,1h-6v519.7h6"/>
	</g>
</g>
<g transform="translate(20.5,585.5)" class="st7">
	<g class="st8">
		<defs>
			<polygon id="SVGID_1_" points="-41.3,1 -40.3,1 -41.3,2 			"/>
		</defs>
		<defs>
			<polygon id="SVGID_2_" points="-43.3,-1 -44.3,-1 -43.3,-2 			"/>
		</defs>
		<clipPath id="SVGID_3_">
			<use xlink:href="#SVGID_1_"  style="overflow:visible;"/>
		</clipPath>
		<clipPath id="SVGID_4_" class="st9">
			<use xlink:href="#SVGID_2_"  style="overflow:visible;"/>
		</clipPath>
	</g>
	<g class="st8">
		<defs>
			<polygon id="SVGID_5_" points="-41.3,1 -40.3,1 -41.3,2 			"/>
		</defs>
		<defs>
			<polygon id="SVGID_6_" points="-43.3,-1 -44.3,-1 -43.3,-2 			"/>
		</defs>
		<clipPath id="SVGID_7_">
			<use xlink:href="#SVGID_5_"  style="overflow:visible;"/>
		</clipPath>
		<clipPath id="SVGID_8_" class="st10">
			<use xlink:href="#SVGID_6_"  style="overflow:visible;"/>
		</clipPath>
		<g class="st11">
			<polygon points="-42.3,0 988.2,0 988.2,0 			"/>
			<polygon class="st12" points="-42.3,0 -42.3,0 -42.3,0 			"/>
			<g transform="translate(0,0)">
				<rect x="-45.3" width="6" height="6"/>
			</g>
			<g transform="translate(0,0)">
				<rect x="-45.3" width="6" height="6"/>
			</g>
		</g>
	</g>
	<g class="st8">
		<defs>
			<polygon id="SVGID_9_" points="-41.3,1 -40.3,1 -41.3,2 			"/>
		</defs>
		<defs>
			<polygon id="SVGID_10_" points="-43.3,-1 -44.3,-1 -43.3,-2 			"/>
		</defs>
		<clipPath id="SVGID_11_">
			<use xlink:href="#SVGID_9_"  style="overflow:visible;"/>
		</clipPath>
		<clipPath id="SVGID_12_" class="st13">
			<use xlink:href="#SVGID_10_"  style="overflow:visible;"/>
		</clipPath>
		<g transform="translate(0,0)" class="st14">
			<g transform="translate(51, 0)">
				<line class="st6" x1="8.7" y1="0" x2="8.7" y2="6"/>
				<text transform="matrix(1 0 0 1 -56.2422 17.52)" class="st8" style="font-family:'Lato-Regular'; font-size:12px;">2009</text>
			</g>
			<g transform="translate(152, 0)">
				<line class="st6" x1="8.7" y1="0" x2="8.7" y2="6"/>
				<text transform="matrix(1 0 0 1 -56.2422 17.52)" class="st8" style="font-family:'Lato-Regular'; font-size:12px;">2010</text>
			</g>
			<g transform="translate(252, 0)">
				<line class="st6" x1="8.7" y1="0" x2="8.7" y2="6"/>
				<text transform="matrix(1 0 0 1 -56.2422 17.52)" class="st8" style="font-family:'Lato-Regular'; font-size:12px;">2011</text>
			</g>
			<g transform="translate(352, 0)">
				<line class="st6" x1="8.7" y1="0" x2="8.7" y2="6"/>
				<text transform="matrix(1 0 0 1 -56.2422 17.52)" class="st8" style="font-family:'Lato-Regular'; font-size:12px;">2012</text>
			</g>
			<g transform="translate(452, 0)">
				<line class="st6" x1="8.7" y1="0" x2="8.7" y2="6"/>
				<text transform="matrix(1 0 0 1 -56.2422 17.52)" class="st8" style="font-family:'Lato-Regular'; font-size:12px;">2013</text>
			</g>
			<g transform="translate(552, 0)">
				<line class="st6" x1="8.7" y1="0" x2="8.7" y2="6"/>
				<text transform="matrix(1 0 0 1 -56.2422 17.52)" class="st8" style="font-family:'Lato-Regular'; font-size:12px;">2014</text>
			</g>
			<g transform="translate(652, 0)">
				<line class="st6" x1="8.7" y1="0" x2="8.7" y2="6"/>
				<text transform="matrix(1 0 0 1 -56.2422 17.52)" class="st8" style="font-family:'Lato-Regular'; font-size:12px;">2015</text>
			</g>
			<g transform="translate(752, 0)">
				<line class="st6" x1="8.7" y1="0" x2="8.7" y2="6"/>
				<text transform="matrix(1 0 0 1 -56.2422 17.52)" class="st8" style="font-family:'Lato-Regular'; font-size:12px;">2016</text>
			</g>
			<g transform="translate(852, 0)">
				<line class="st6" x1="8.7" y1="0" x2="8.7" y2="6"/>
				<text transform="matrix(1 0 0 1 -56.2422 17.52)" class="st8" style="font-family:'Lato-Regular'; font-size:12px;">2017</text>
			</g>
			<g transform="translate(952, 0)">
				<line class="st6" x1="8.7" y1="0" x2="8.7" y2="0"/>
				<text transform="matrix(1 0 0 1 -56.2422 17.52)" class="st8" style="font-family:'Lato-Regular'; font-size:12px;">2018</text>
			</g>
			<path class="st6" d="M-42.3,6V0H958.2v6"/>
		</g>
	</g>
</g>
<ellipse class="st15" cx="260.2" cy="99.9" rx="62.9" ry="63.4"/>
<path class="st15" d="M107.9,44.7c-30.4,0-55.2,24.7-55.2,55.2S77.5,155,107.9,155c25.6,0,47.3-17.6,53.4-41.3l-53.4-13.8V44.7z"/>
<path class="st15" d="M107.9,44.7L107.9,44.7l0,55.2l53.4,13.8c1.1-4.4,1.8-9,1.8-13.8C163.1,69.5,138.3,44.7,107.9,44.7z"/>
<path class="st1" d="M161.3,113.7c-6.1,23.8-27.8,41.3-53.4,41.3c-30.4,0-55.2-24.7-55.2-55.2s24.7-55.2,55.2-55.2v-15
	c-38.7,0-70.2,31.5-70.2,70.2S69.2,170,107.9,170c32.6,0,60.1-22.4,67.9-52.6L161.3,113.7z"/>
<path class="st16" d="M107.9,44.7c30.4,0,55.2,24.7,55.2,55.2c0,4.8-0.6,9.4-1.8,13.8l14.5,3.8c1.5-5.6,2.2-11.5,2.2-17.6
	c0-38.7-31.5-70.2-70.2-70.2h0L107.9,44.7L107.9,44.7z"/>
<path class="st15" d="M227.3,55.6C213.8,65.7,205,81.8,205,99.9c0,30.4,24.7,55.2,55.2,55.2s55.2-24.7,55.2-55.2
	c0-30.4-24.7-55.2-55.2-55.2v55.2L227.3,55.6z"/>
<path class="st15" d="M227.3,55.6l32.9,44.3V44.7c0,0,0,0,0,0C247.9,44.7,236.5,48.8,227.3,55.6z"/>
<path class="st2" d="M260.2,44.7C260.2,44.7,260.2,44.7,260.2,44.7l0-15c0,0,0,0,0,0c-15.7,0-30.1,5.2-41.8,13.9l8.9,12
	C236.5,48.8,247.9,44.7,260.2,44.7z"/>
<path class="st17" d="M260.2,29.7v15c30.4,0,55.2,24.7,55.2,55.2c0,30.4-24.7,55.2-55.2,55.2S205,130.3,205,99.9
	c0-18.1,8.8-34.2,22.3-44.3l-8.9-12C201.2,56.4,190,76.8,190,99.9c0,38.7,31.5,70.2,70.2,70.2s70.2-31.5,70.2-70.2
	C330.3,61.2,298.9,29.7,260.2,29.7z"/>
<path class="st15" d="M107.9,245.5v-55.2c-10,0-19.4,2.7-27.5,7.4L107.9,245.5z"/>
<path class="st15" d="M80.4,197.7c-16.5,9.5-27.7,27.4-27.7,47.8c0,30.4,24.7,55.2,55.2,55.2s55.2-24.7,55.2-55.2
	s-24.7-55.2-55.2-55.2c0,0,0,0,0,0v55.2L80.4,197.7z"/>
<path class="st5" d="M107.9,190.3v-15c-12.7,0-24.6,3.4-34.9,9.4l7.5,13C88.5,193,97.9,190.3,107.9,190.3z"/>
<path class="st18" d="M107.9,175.3C107.9,175.3,107.9,175.3,107.9,175.3l0,15c0,0,0,0,0,0c30.4,0,55.2,24.7,55.2,55.2
	s-24.7,55.2-55.2,55.2s-55.2-24.7-55.2-55.2c0-20.4,11.2-38.3,27.7-47.8l-7.5-13c-21,12.1-35.2,34.8-35.2,60.8
	c0,38.7,31.5,70.2,70.2,70.2s70.2-31.5,70.2-70.2S146.6,175.3,107.9,175.3z"/>
<path class="st15" d="M218.8,209.1l41.3,36.4v-55.2c0,0,0,0,0,0C243.7,190.3,228.9,197.6,218.8,209.1z"/>
<path class="st15" d="M218.8,209.1c-8.6,9.7-13.8,22.5-13.8,36.4c0,30.4,24.7,55.2,55.2,55.2s55.2-24.7,55.2-55.2
	c0-30.4-24.7-55.2-55.2-55.2v55.2L218.8,209.1z"/>
<path class="st4" d="M260.2,190.3C260.2,190.3,260.2,190.3,260.2,190.3l0-15c0,0,0,0,0,0c-20.9,0-39.7,9.2-52.6,23.8l11.2,9.9
	C228.9,197.6,243.7,190.3,260.2,190.3z"/>
<path class="st19" d="M260.2,175.3v15c30.4,0,55.2,24.7,55.2,55.2c0,30.4-24.7,55.2-55.2,55.2S205,275.9,205,245.5
	c0-14,5.2-26.7,13.8-36.4l-11.2-9.9c-10.9,12.4-17.6,28.6-17.6,46.4c0,38.7,31.5,70.2,70.2,70.2s70.2-31.5,70.2-70.2
	C330.3,206.8,298.9,175.3,260.2,175.3z"/>
</svg>
