<?xml version="1.0" encoding="utf-8"?>
<!-- Generator: Adobe Illustrator 22.0.1, SVG Export Plug-In . SVG Version: 6.00 Build 0)  -->
<svg version="1.1" id="Capa_1" xmlns="http://www.w3.org/2000/svg" xmlns:xlink="http://www.w3.org/1999/xlink" x="0px" y="0px"
	 viewBox="0 0 480 480" style="enable-background:new 0 0 480 480;" xml:space="preserve">
<style type="text/css">
	.st0{fill:#808285;}
</style>
<g>
	<g>
		<path class="st0" d="M316,217.1c-2.5-1.4-5.5-1.4-8,0l-44,25.2V224c0-4.4-3.6-8-8-8c-1.4,0-2.8,0.4-4,1.1l-44,25.2V192
			c0-4.4-3.6-8-8-8c0,0,0,0,0,0h-32c-4.4,0-8,3.6-8,8c0,0,0,0,0,0v96c0,4.4,3.6,8,8,8c0,0,0,0,0,0h144c4.4,0,8-3.6,8-8c0,0,0,0,0,0
			v-64C320,221.1,318.5,218.5,316,217.1z M304,280H176v-80h16v56c0,4.4,3.6,8,8,8c1.4,0,2.8-0.4,4-1.1l44-25.2V256c0,4.4,3.6,8,8,8
			c1.4,0,2.8-0.4,4-1.1l44-25.2V280z"/>
	</g>
</g>
<g>
	<g>
		<path class="st0" d="M472,0C472,0,472,0,472,0h-96c-4.4,0-8,3.6-8,8c0,0,0,0,0,0v100.5l-40.6,38.2
			c-49.6-46.8-127.2-46.3-176.1,1.2L112,108.7V8c0-4.4-3.6-8-8-8c0,0,0,0,0,0H8C3.6,0,0,3.6,0,8c0,0,0,0,0,0v104c0,4.4,3.6,8,8,8
			c0,0,0,0,0,0h92.7l39.7,39.7c-37.9,46.8-37.9,113.7,0,160.5L100.7,360H8c-4.4,0-8,3.6-8,8c0,0,0,0,0,0v104c0,4.4,3.6,8,8,8
			c0,0,0,0,0,0h96c4.4,0,8-3.6,8-8c0,0,0,0,0,0V371.3l39.3-39.3c48.9,47.5,126.6,48,176.1,1.2l40.6,38.2V472c0,4.4,3.6,8,8,8
			c0,0,0,0,0,0h96c4.4,0,8-3.6,8-8c0,0,0,0,0,0V368c0-4.4-3.6-8-8-8c0,0,0,0,0,0h-92.8l-40.7-38.3c39.4-47.3,39.4-116,0-163.4
			l40.7-38.3H472c4.4,0,8-3.6,8-8c0,0,0,0,0,0V8C480,3.6,476.4,0,472,0z M48,16h16v16c0,4.4-3.6,8-8,8s-8-3.6-8-8V16z M16,16h16v16
			c0,4.4-3.6,8-8,8s-8-3.6-8-8V16z M96,104H16V88h80V104z M96,72H16V54.5c8.3,3.1,17.6,1.2,24-4.8c9,8.3,23,8.3,32,0
			c6.4,6,15.7,7.9,24,4.8V72z M96,32c0,4.4-3.6,8-8,8s-8-3.6-8-8V16h16V32z M48,376h16v16c0,4.4-3.6,8-8,8s-8-3.6-8-8V376z M16,376
			h16v16c0,4.4-3.6,8-8,8s-8-3.6-8-8V376z M96,464H16v-16h80V464z M96,432H16v-17.5c8.3,3.1,17.6,1.2,24-4.8c9,8.3,23,8.3,32,0
			c6.4,6,15.7,7.9,24,4.8V432z M96,392c0,4.4-3.6,8-8,8s-8-3.6-8-8v-16h16V392z M448,376h16v16c0,4.4-3.6,8-8,8s-8-3.6-8-8V376z
			 M416,376h16v16c0,4.4-3.6,8-8,8s-8-3.6-8-8V376z M384,376h16v16c0,4.4-3.6,8-8,8s-8-3.6-8-8V376z M384,414.5
			c8.3,3.1,17.6,1.2,24-4.8c9,8.3,23,8.3,32,0c6.4,6,15.7,7.9,24,4.8V432h-80V414.5z M384,448h80v16h-80V448z M352,240
			c0,61.9-50.1,112-112,112s-112-50.1-112-112s50.1-112,112-112C301.8,128.1,351.9,178.2,352,240z M416,16h16v16c0,4.4-3.6,8-8,8
			s-8-3.6-8-8V16z M384,16h16v16c0,4.4-3.6,8-8,8s-8-3.6-8-8V16z M464,104h-80V88h80V104z M464,72h-80V54.5c8.3,3.1,17.6,1.2,24-4.8
			c9,8.3,23,8.3,32,0c6.4,6,15.7,7.9,24,4.8V72z M464,32c0,4.4-3.6,8-8,8s-8-3.6-8-8V16h16V32z"/>
	</g>
</g>
</svg>
