<svg xmlns="http://www.w3.org/2000/svg" width="350" height="350" viewBox="0 0 350 350"><defs><style>.cls-1,.cls-2,.cls-3,.cls-4,.cls-5{fill:none}.cls-1,.cls-4{stroke:#2596c7}.cls-1,.cls-2,.cls-3,.cls-4{stroke-linecap:round;stroke-linejoin:round;fill-rule:evenodd}.cls-1,.cls-3{stroke-width:7px}.cls-2{stroke:#e82366}.cls-2,.cls-4,.cls-5{stroke-width:6px}.cls-3{stroke:#f3faf9}.cls-5{stroke:#2496c6}</style></defs><g id="Grit"><g id="Grit-2" data-name="Grit"><g id="Steps"><path id="Rectangle_6_copy_2" data-name="Rectangle 6 copy 2" class="cls-1" d="M107 903v-54h54v-54h54v-54h53.994v-53.992h54" transform="translate(0 -566)"/><path id="Rectangle_6_copy_3" data-name="Rectangle 6 copy 3" class="cls-1" d="M107 902v-43h54v-54h54v-54h53.994v-53.992h54" transform="translate(0 -566)"/></g><g id="Cape"><path class="cls-2" d="M182 623c-22.268-13.223-51.61 6.063-80.085 27.717-26.3 20-66.088 13.422-75.68 13.585-6.437.11 14.55 11.614 10.166 46.415-3.757 29.824 30.255 17.432 28.24 48.683 59.577 6.267 65-59.617 111.918-79.062" transform="translate(0 -566)"/><path id="Polygon_1_copy_3" data-name="Polygon 1 copy 3" class="cls-3" d="M126.27 659.778c-37.326 42.79-66.16 28.3-66.148 28.3" transform="translate(0 -566)"/></g><g id="Person"><path id="Body" class="cls-4" d="M262.66 644.1l-19.832 12.95a8.813 8.813 0 0 1-10.86-1.54l-12.757-7.41v29.29l33.023 19.1a14.964 14.964 0 0 1 6.9 10.473l-13.1 19.29 4.98.71c3.12 0 5.05 2.794 5.05 5.92v1.8a5.654 5.654 0 0 1-5.65 5.66h-22.48a5.654 5.654 0 0 1-5.65-5.66v-4.06a4.26 4.26 0 0 1 .032-.436c-.01-.2-.03-.4-.03-.61l.223-.33a8.19 8.19 0 0 1 2.465-3.63l10.572-15.568-26.8-13.95a12.132 12.132 0 0 1-1.534.108h-5.844l-3.308 42.533-11.545 41.274 5.766 1.03c3.118 0 5.437 3.013 5.437 6.14v1.8a5.654 5.654 0 0 1-5.648 5.66h-22.485a5.653 5.653 0 0 1-5.647-5.66v-4.062c0-.173.01-.353.025-.534-.008-.17-.025-.34-.025-.512l12.29-48.21 3.06-53.252V642.98l-15.2 4.152-7.284 17.62a8.957 8.957 0 0 1-10.854 6.433 8.84 8.84 0 0 1-6.148-10.937l9.548-23.1a9.016 9.016 0 0 1 8.852-6.71l28.313-7.734a8.973 8.973 0 0 1 4.677-.016h16.017a11.93 11.93 0 0 1 7.158 2.386 8.943 8.943 0 0 1 1.166.558l22.915 13.31 15.46-10.092a8.787 8.787 0 0 1 12.066 3.156 8.9 8.9 0 0 1-3.315 12.094z" transform="translate(0 -566)"/><circle id="Circle" class="cls-5" cx="201.594" cy="31.531" r="21.5"/></g></g></g></svg>