<?xml version="1.0" encoding="utf-8"?>
<!-- Generator: Adobe Illustrator 22.0.1, SVG Export Plug-In . SVG Version: 6.00 Build 0)  -->
<svg version="1.1" id="Layer_1" xmlns="http://www.w3.org/2000/svg" xmlns:xlink="http://www.w3.org/1999/xlink" x="0px" y="0px"
	 viewBox="0 0 855.7 658.2" style="enable-background:new 0 0 855.7 658.2;" xml:space="preserve">
<style type="text/css">
	.st0{fill:#C4E8F4;}
	.st1{fill:#B5E3F2;}
	.st2{fill:#96D9EE;}
	.st3{fill:#62CBE9;}
	.st4{fill:#36C4E9;}
	.st5{fill:#5DCAE9;}
	.st6{fill:#D2EDF6;}
	.st7{fill:#E1F3FA;}
	.st8{fill:#F1F9FB;}
	.st9{fill:#EDF8FC;}
	.st10{fill:#F2FAFB;}
	.st11{fill:#EBF7FC;}
	.st12{fill:#EEF8FC;}
	.st13{fill:#F6FCFE;}
	.st14{fill:#E6F5F9;}
	.st15{fill:#DEF2F9;}
	.st16{fill:#D8F0F7;}
	.st17{fill:#C1E7F3;}
	.st18{fill:#B7E4F2;}
	.st19{fill:#B9E4F2;}
	.st20{fill:#A4DDF0;}
	.st21{fill:#C3E8F3;}
	.st22{fill:#F7FCFE;}
	.st23{fill:#FBFEFF;}
	.st24{fill:#FFFFFF;}
	.st25{fill:#F5FBFE;}
	.st26{fill:#E9F7FC;}
	.st27{fill:#E9F6FB;}
	.st28{fill:#90D7EC;}
	.st29{fill:#6ECEEA;}
	.st30{fill:#71CFEA;}
	.st31{fill:#5BCAE9;}
	.st32{fill:#80D2EB;}
	.st33{fill:#44C6E8;}
	.st34{fill:#64CBE9;}
	.st35{fill:#ACE0F0;}
	.st36{fill:#C8EAF5;}
	.st37{fill:#D1EDF6;}
	.st38{fill:#CCEBF5;}
	.st39{fill:#BFE6F2;}
	.st40{fill:#B3E2F1;}
	.st41{fill:#AFE1F1;}
	.st42{fill:#E5F5FA;}
	.st43{fill:#D6EFF7;}
	.st44{fill:#CAEAF5;}
	.st45{fill:#BCE5F1;}
	.st46{fill:#B4E3F2;}
	.st47{fill:#AEE0F1;}
	.st48{fill:#B6E3F2;}
	.st49{fill:#E4F4F9;}
	.st50{fill:#4AC7E9;}
	.st51{fill:#7FD2EC;}
	.st52{fill:#9EDBEE;}
	.st53{fill:#6ACDE9;}
	.st54{fill:#4EC7E8;}
	.st55{fill:#C6E9F4;}
	.st56{fill:#C4E8F3;}
	.st57{fill:#BDE6F3;}
	.st58{fill:#B0E1F1;}
	.st59{fill:#A9DFF0;}
	.st60{fill:#A8DFEF;}
	.st61{fill:#B1E1F0;}
	.st62{fill:#D9F0F7;}
	.st63{fill:#E2F4FA;}
	.st64{fill:#CEECF6;}
	.st65{fill:#CDECF6;}
	.st66{fill:#BFE6F3;}
	.st67{fill:#46C6E8;}
	.st68{fill:#8DD6ED;}
	.st69{fill:#DDF2F9;}
	.st70{fill:#DFF2F8;}
	.st71{fill:#CFECF6;}
	.st72{fill:#51C8E9;}
	.st73{fill:#A0DCEF;}
	.st74{fill:#A5DDEF;}
	.st75{clip-path:url(#SVGID_2_);fill:url(#SVGID_3_);}
	.st76{fill:none;stroke:#000000;stroke-width:0.25;}
</style>
<path class="st0" d="M490.2,243.6h48.5v26.4h-48.5V243.6z M296.4,243.6h48.5v26.4h-48.5V243.6z M151.1,111.3h48.5v26.4h-48.5V111.3z
	"/>
<rect x="199.5" y="111.3" class="st1" width="48.5" height="26.4"/>
<rect x="248" y="111.3" class="st2" width="48.5" height="26.4"/>
<rect x="296.4" y="111.3" class="st3" width="48.5" height="26.4"/>
<path class="st4" d="M490.2,349.3h48.5v26.4h-48.5V349.3z M441.8,349.3h48.5v26.4h-48.5V349.3z M393.3,349.3h48.5v26.4h-48.5V349.3z
	 M344.9,349.3h48.5v26.4h-48.5V349.3z M296.4,349.3h48.5v26.4h-48.5V349.3z M441.8,111.3h48.5v26.4h-48.5V111.3z M393.3,111.3h48.5
	v26.4h-48.5V111.3z M344.9,111.3h48.5v26.4h-48.5V111.3z"/>
<rect x="490.2" y="111.3" class="st5" width="48.5" height="26.4"/>
<path class="st6" d="M199.5,243.6H248v26.4h-48.5V243.6z M538.7,111.3h48.5v26.4h-48.5V111.3z"/>
<path class="st7" d="M296.4,481.4h48.5v26.4h-48.5V481.4z M248,481.4h48.5v26.4H248V481.4z M587.1,402.2h48.5v26.4h-48.5V402.2z
	 M587.1,111.3h48.5v26.4h-48.5V111.3z"/>
<rect x="151.1" y="137.7" class="st8" width="48.5" height="26.4"/>
<rect x="199.5" y="137.7" class="st9" width="48.5" height="26.4"/>
<path class="st10" d="M151.1,481.4h48.5v26.4h-48.5V481.4z M587.1,164.1h48.5v26.4h-48.5V164.1z M248,137.7h48.5v26.4H248V137.7z"/>
<path class="st11" d="M538.7,164.1h48.5v26.4h-48.5V164.1z M296.4,137.7h48.5v26.4h-48.5V137.7z"/>
<rect x="344.9" y="137.7" class="st12" width="48.5" height="26.4"/>
<path class="st12" d="M199.5,481.4H248v26.4h-48.5V481.4z M393.3,137.7h48.5v26.4h-48.5V137.7z"/>
<rect x="441.8" y="137.7" class="st10" width="48.5" height="26.4"/>
<rect x="490.2" y="137.7" class="st10" width="48.5" height="26.4"/>
<rect x="538.7" y="137.7" class="st13" width="48.5" height="26.4"/>
<rect x="587.1" y="137.7" class="st13" width="48.5" height="26.4"/>
<rect x="151.1" y="164.1" class="st14" width="48.5" height="26.4"/>
<rect x="199.5" y="164.1" class="st15" width="48.5" height="26.4"/>
<rect x="248" y="164.1" class="st16" width="48.5" height="26.4"/>
<rect x="296.4" y="164.1" class="st17" width="48.5" height="26.4"/>
<rect x="344.9" y="164.1" class="st18" width="48.5" height="26.4"/>
<rect x="393.3" y="164.1" class="st19" width="48.5" height="26.4"/>
<rect x="441.8" y="164.1" class="st20" width="48.5" height="26.4"/>
<rect x="490.2" y="164.1" class="st21" width="48.5" height="26.4"/>
<path class="st22" d="M344.9,190.6h48.5v26.7h-48.5V190.6z M151.1,190.6h48.5v26.7h-48.5V190.6z"/>
<path class="st23" d="M538.7,190.6h48.5v26.7h-48.5V190.6z M296.4,190.6h48.5v26.7h-48.5V190.6z M199.5,190.6H248v26.7h-48.5V190.6z
	"/>
<rect x="248" y="190.6" class="st24" width="48.5" height="26.7"/>
<path class="st25" d="M587.1,481.4h48.5v26.4h-48.5V481.4z M490.2,190.6h48.5v26.7h-48.5V190.6z M393.3,190.6h48.5v26.7h-48.5V190.6
	z"/>
<path class="st26" d="M538.7,481.4h48.5v26.4h-48.5V481.4z M587.1,243.6h48.5v26.4h-48.5V243.6z M441.8,190.6h48.5v26.7h-48.5V190.6
	z"/>
<rect x="587.1" y="190.6" class="st27" width="48.5" height="26.7"/>
<rect x="151.1" y="217.2" class="st28" width="48.5" height="26.4"/>
<rect x="199.5" y="217.2" class="st29" width="48.5" height="26.4"/>
<rect x="248" y="217.2" class="st30" width="48.5" height="26.4"/>
<path class="st31" d="M393.3,217.2h48.5v26.4h-48.5V217.2z M296.4,217.2h48.5v26.4h-48.5V217.2z"/>
<path class="st32" d="M199.5,349.3H248v26.4h-48.5V349.3z M344.9,217.2h48.5v26.4h-48.5V217.2z"/>
<rect x="441.8" y="217.2" class="st33" width="48.5" height="26.4"/>
<rect x="490.2" y="217.2" class="st34" width="48.5" height="26.4"/>
<rect x="538.7" y="217.2" class="st35" width="48.5" height="26.4"/>
<rect x="587.1" y="217.2" class="st36" width="48.5" height="26.4"/>
<path class="st37" d="M199.5,296.5H248v26.4h-48.5V296.5z M151.1,243.6h48.5v26.4h-48.5V243.6z"/>
<rect x="248" y="243.6" class="st38" width="48.5" height="26.4"/>
<rect x="344.9" y="243.6" class="st39" width="48.5" height="26.4"/>
<rect x="393.3" y="243.6" class="st40" width="48.5" height="26.4"/>
<rect x="441.8" y="243.6" class="st41" width="48.5" height="26.4"/>
<path class="st42" d="M587.1,296.5h48.5v26.4h-48.5V296.5z M538.7,243.6h48.5v26.4h-48.5V243.6z"/>
<rect x="151.1" y="270.1" class="st4" width="48.5" height="26.4"/>
<rect x="199.5" y="270.1" class="st4" width="48.5" height="26.4"/>
<rect x="248" y="270.1" class="st4" width="48.5" height="26.4"/>
<rect x="296.4" y="270.1" class="st4" width="48.5" height="26.4"/>
<rect x="344.9" y="270.1" class="st4" width="48.5" height="26.4"/>
<rect x="393.3" y="270.1" class="st4" width="48.5" height="26.4"/>
<rect x="441.8" y="270.1" class="st4" width="48.5" height="26.4"/>
<rect x="490.2" y="270.1" class="st4" width="48.5" height="26.4"/>
<rect x="538.7" y="270.1" class="st4" width="48.5" height="26.4"/>
<rect x="587.1" y="270.1" class="st4" width="48.5" height="26.4"/>
<rect x="151.1" y="296.5" class="st43" width="48.5" height="26.4"/>
<rect x="248" y="296.5" class="st44" width="48.5" height="26.4"/>
<rect x="296.4" y="296.5" class="st45" width="48.5" height="26.4"/>
<rect x="344.9" y="296.5" class="st46" width="48.5" height="26.4"/>
<rect x="393.3" y="296.5" class="st35" width="48.5" height="26.4"/>
<rect x="441.8" y="296.5" class="st47" width="48.5" height="26.4"/>
<rect x="490.2" y="296.5" class="st48" width="48.5" height="26.4"/>
<path class="st49" d="M441.8,481.4h48.5v26.4h-48.5V481.4z M538.7,296.5h48.5v26.4h-48.5V296.5z"/>
<rect x="151.1" y="322.9" class="st4" width="48.5" height="26.4"/>
<rect x="199.5" y="322.9" class="st4" width="48.5" height="26.4"/>
<rect x="248" y="322.9" class="st4" width="48.5" height="26.4"/>
<rect x="296.4" y="322.9" class="st4" width="48.5" height="26.4"/>
<rect x="344.9" y="322.9" class="st4" width="48.5" height="26.4"/>
<rect x="393.3" y="322.9" class="st4" width="48.5" height="26.4"/>
<rect x="441.8" y="322.9" class="st4" width="48.5" height="26.4"/>
<rect x="490.2" y="322.9" class="st4" width="48.5" height="26.4"/>
<rect x="538.7" y="322.9" class="st50" width="48.5" height="26.4"/>
<rect x="587.1" y="322.9" class="st51" width="48.5" height="26.4"/>
<rect x="151.1" y="349.3" class="st52" width="48.5" height="26.4"/>
<rect x="248" y="349.3" class="st53" width="48.5" height="26.4"/>
<rect x="538.7" y="349.3" class="st44" width="48.5" height="26.4"/>
<rect x="587.1" y="349.3" class="st16" width="48.5" height="26.4"/>
<rect x="151.1" y="375.7" class="st4" width="48.5" height="26.4"/>
<rect x="199.5" y="375.7" class="st4" width="48.5" height="26.4"/>
<rect x="248" y="375.7" class="st4" width="48.5" height="26.4"/>
<rect x="296.4" y="375.7" class="st4" width="48.5" height="26.4"/>
<rect x="344.9" y="375.7" class="st4" width="48.5" height="26.4"/>
<rect x="393.3" y="375.7" class="st4" width="48.5" height="26.4"/>
<rect x="441.8" y="375.7" class="st4" width="48.5" height="26.4"/>
<rect x="490.2" y="375.7" class="st4" width="48.5" height="26.4"/>
<rect x="538.7" y="375.7" class="st4" width="48.5" height="26.4"/>
<rect x="587.1" y="375.7" class="st54" width="48.5" height="26.4"/>
<rect x="151.1" y="402.2" class="st55" width="48.5" height="26.4"/>
<rect x="199.5" y="402.2" class="st56" width="48.5" height="26.4"/>
<rect x="248" y="402.2" class="st57" width="48.5" height="26.4"/>
<rect x="296.4" y="402.2" class="st58" width="48.5" height="26.4"/>
<rect x="344.9" y="402.2" class="st59" width="48.5" height="26.4"/>
<rect x="393.3" y="402.2" class="st59" width="48.5" height="26.4"/>
<rect x="441.8" y="402.2" class="st60" width="48.5" height="26.4"/>
<rect x="490.2" y="402.2" class="st61" width="48.5" height="26.4"/>
<rect x="538.7" y="402.2" class="st62" width="48.5" height="26.4"/>
<rect x="151.1" y="428.6" class="st63" width="48.5" height="26.4"/>
<rect x="199.5" y="428.6" class="st62" width="48.5" height="26.4"/>
<rect x="248" y="428.6" class="st43" width="48.5" height="26.4"/>
<rect x="296.4" y="428.6" class="st64" width="48.5" height="26.4"/>
<rect x="344.9" y="428.6" class="st64" width="48.5" height="26.4"/>
<rect x="393.3" y="428.6" class="st65" width="48.5" height="26.4"/>
<rect x="441.8" y="428.6" class="st66" width="48.5" height="26.4"/>
<rect x="490.2" y="428.6" class="st0" width="48.5" height="26.4"/>
<rect x="538.7" y="428.6" class="st42" width="48.5" height="26.4"/>
<rect x="587.1" y="428.6" class="st26" width="48.5" height="26.4"/>
<rect x="151.1" y="455" class="st4" width="48.5" height="26.4"/>
<rect x="199.5" y="455" class="st4" width="48.5" height="26.4"/>
<rect x="248" y="455" class="st4" width="48.5" height="26.4"/>
<rect x="296.4" y="455" class="st4" width="48.5" height="26.4"/>
<rect x="344.9" y="455" class="st4" width="48.5" height="26.4"/>
<rect x="393.3" y="455" class="st4" width="48.5" height="26.4"/>
<rect x="441.8" y="455" class="st4" width="48.5" height="26.4"/>
<rect x="490.2" y="455" class="st4" width="48.5" height="26.4"/>
<rect x="538.7" y="455" class="st67" width="48.5" height="26.4"/>
<rect x="587.1" y="455" class="st68" width="48.5" height="26.4"/>
<rect x="344.9" y="481.4" class="st69" width="48.5" height="26.4"/>
<rect x="393.3" y="481.4" class="st70" width="48.5" height="26.4"/>
<rect x="490.2" y="481.4" class="st71" width="48.5" height="26.4"/>
<rect x="151.1" y="507.9" class="st72" width="48.5" height="26.4"/>
<rect x="199.5" y="507.9" class="st4" width="48.5" height="26.4"/>
<rect x="248" y="507.9" class="st4" width="48.5" height="26.4"/>
<rect x="296.4" y="507.9" class="st4" width="48.5" height="26.4"/>
<rect x="344.9" y="507.9" class="st4" width="48.5" height="26.4"/>
<rect x="393.3" y="507.9" class="st4" width="48.5" height="26.4"/>
<rect x="441.8" y="507.9" class="st4" width="48.5" height="26.4"/>
<rect x="490.2" y="507.9" class="st4" width="48.5" height="26.4"/>
<rect x="538.7" y="507.9" class="st73" width="48.5" height="26.4"/>
<rect x="587.1" y="507.9" class="st74" width="48.5" height="26.4"/>
<g>
	<defs>
		<rect id="SVGID_1_" x="646" y="112.8" width="31.7" height="423"/>
	</defs>
	<clipPath id="SVGID_2_">
		<use xlink:href="#SVGID_1_"  style="overflow:visible;"/>
	</clipPath>
	
		<linearGradient id="SVGID_3_" gradientUnits="userSpaceOnUse" x1="44.8208" y1="900.8901" x2="46.62" y2="900.8901" gradientTransform="matrix(2.801 200.594 200.594 -2.801 -180179.6875 -6341.4375)">
		<stop  offset="0" style="stop-color:#34C4E9"/>
		<stop  offset="0.1175" style="stop-color:#46C6EA"/>
		<stop  offset="0.3016" style="stop-color:#6ACDEC"/>
		<stop  offset="0.5292" style="stop-color:#96D9F1"/>
		<stop  offset="0.7888" style="stop-color:#CDECF7"/>
		<stop  offset="1" style="stop-color:#FFFFFF"/>
	</linearGradient>
	<polygon class="st75" points="677.6,112.3 682.7,535.7 646,536.3 640.9,112.9 	"/>
</g>
<rect x="646" y="112.8" class="st76" width="31.7" height="423"/>
</svg>
