<svg xmlns="http://www.w3.org/2000/svg" viewBox="221 8054 92 87.8">
  <defs>
    <style>
      .cls-1{
        fill: #2684ba;
      }
    </style>
  </defs>
  <path id="Path_1090" data-name="Path 1090" class="cls-1" d="M82.5 74.8H70a8.024 8.024 0 0 1-8-8v-6.1h4l-6-12-6 12h4v6.1a12.035 12.035 0 0 0 12 12h12.5a2 2 0 0 0 0-4zM23.3 60.7h4v6.1a8.024 8.024 0 0 1-8 8H6.8a2 2 0 0 0 0 4h12.5a12.035 12.035 0 0 0 12-12v-6.1h4l-6-12zm15.3 0h4v25.1a2 2 0 0 0 4 0V60.7h4l-6-12zm39.9-38C78.3 10.1 67.5 0 54.2 0a24.514 24.514 0 0 0-21.5 12.5 12.531 12.531 0 0 0-5.7-1.3 12.245 12.245 0 0 0-12.5 11.4A17.389 17.389 0 0 0 0 39.5C0 49.2 8.3 57 18.4 57h4.5l6.4-12.8L35.7 57h2.5l6.4-12.8L51 57h2.5L60 44.2 66.4 57h7.2C83.7 57 92 49.2 92 39.5a17.449 17.449 0 0 0-13.5-16.8z" transform="translate(221 8054)"/>
</svg>
