<?xml version="1.0" encoding="utf-8"?>
<!-- Generator: Adobe Illustrator 22.0.1, SVG Export Plug-In . SVG Version: 6.00 Build 0)  -->
<svg version="1.1" id="Capa_1" xmlns="http://www.w3.org/2000/svg" xmlns:xlink="http://www.w3.org/1999/xlink" x="0px" y="0px"
	 viewBox="0 0 326 314" style="enable-background:new 0 0 326 314;" xml:space="preserve">
<style type="text/css">
	.st0{fill:#808285;}
	.st1{fill:#32C4E9;}
</style>
<path class="st0" d="M303.6,290.4L227,212.5c19.5-19.2,31.7-45.6,31.7-74.7C258.6,79.4,210,32,150.3,32S42,79.4,42,137.8
	s48.6,105.8,108.3,105.8c26.2,0,50.3-9.2,69-24.4l76.8,78.1c1,1,2.4,1.5,3.7,1.5c1.3,0,2.6-0.5,3.6-1.4
	C305.5,295.6,305.5,292.4,303.6,290.4z M150.3,233.5c-54,0-98-43-98-95.8s44-95.8,98-95.8s98,43,98,95.8S204.3,233.5,150.3,233.5z"
	/>
<g id="XMLID_511_">
	<g>
		<path class="st1" d="M219,138c4-4.7,5.8-10.8,4.6-16.9c-1.2-6.4-5.4-11.6-11.2-14.6c1.9-6.3,0.7-13.1-3.7-18.4
			c-4.2-5.2-11-8.4-18-8.4c-1,0-2,0.1-3,0.2c-3.5-7.6-11.5-12.8-20.7-12.8c-7.3,0-13.8,3.2-17.9,8.2c-4.1-5-10.6-8.2-17.9-8.2
			c-9.2,0-17.2,5.1-20.7,12.8c-1-0.1-2-0.2-3-0.2c-7.1,0-13.8,3-18,8.4c-4.3,5.3-5.5,12.2-3.7,18.4c-5.9,3-10,8.3-11.2,14.6
			c-1.2,6,0.6,12.2,4.6,16.9c-4,4.7-5.8,10.8-4.6,16.9c1.2,6.4,5.4,11.6,11.2,14.6c-1.9,6.3-0.7,13.1,3.7,18.4
			c4.2,5.2,11,8.4,18,8.4c1,0,2-0.1,3-0.2c3.5,7.6,11.5,12.8,20.7,12.8c7.3,0,13.8-3.2,17.9-8.2c4.1,5,10.6,8.2,17.9,8.2
			c9.2,0,17.2-5.1,20.7-12.8c1,0.1,2,0.2,3,0.2c7.1,0,13.8-3,18-8.4c4.3-5.3,5.5-12.2,3.7-18.4c5.9-3,10-8.3,11.2-14.6
			C224.8,148.9,223.1,142.7,219,138z M144.4,187.9c0,6.8-5.9,12.3-13.2,12.3c-6.3,0-11.7-4.2-12.9-9.9l-0.1-0.3
			c-0.1-0.7-0.2-1.4-0.2-2.1c0-2,0.5-3.9,1.5-5.7c3.5,2,7.5,3,11.7,3v-8.7c-3.6,0-6.8-1.3-9.4-3.6c-2.5-2.4-3.8-5.4-3.8-8.7h-9.3
			c0,4.3,1.3,8.3,3.8,11.8c-2.4,3.4-3.8,7.3-3.8,11.4c-0.4,0-0.8,0.1-1.2,0.1c-4.2,0-8.1-1.8-10.6-5c-3.1-3.8-3.5-9.1-1-13.3
			l1.1-1.9l-1.9-4l-2.1-0.6c-4.9-1.3-8.4-5-9.3-9.6c-0.7-4,0.7-8.2,3.7-11h21.7c0.8,3.9,3,7.6,6.1,10.5c4.1,3.8,9.7,6.2,15.9,6.2
			h13.2V187.9L144.4,187.9z M144.4,150.4h-13.2c-7,0-12.7-5.1-13.2-11.6c0,0,0,0,0-0.1c0-0.2,0-0.4,0-0.6c0-3.3,1.4-6.4,3.8-8.7
			l-6.6-6.1c-3.1,2.9-5.2,6.5-6.1,10.5H87.5c-3.1-2.9-4.6-7-3.7-11c0.9-4.6,4.5-8.3,9.3-9.6l2.1-0.6l1.9-4l-1.1-1.9
			c-2.5-4.3-2.1-9.4,1-13.3c2.5-3.1,6.4-4.9,10.6-4.9c0.4,0,0.8,0,1.2,0.1c0.1,4.1,1.4,8.1,3.8,11.4c-2.5,3.5-3.8,7.5-3.8,11.8h9.3
			c0-3.3,1.4-6.4,3.8-8.7c2.5-2.4,5.8-3.6,9.4-3.6v-8.7c-4.2,0-8.2,1-11.7,3c-0.9-1.7-1.5-3.7-1.5-5.7c0-0.7,0.1-1.4,0.2-2l0.1-0.3
			c1.2-5.7,6.7-9.9,12.9-9.9c7.3,0,13.2,5.5,13.2,12.3V150.4z M153.8,88.1c0-6.8,5.9-12.3,13.2-12.3c6.3,0,11.7,4.2,12.9,9.9L180,86
			c0.1,0.7,0.2,1.4,0.2,2.1c0,2-0.5,3.9-1.5,5.7c-3.5-2-7.5-3-11.7-3v8.7c3.6,0,6.8,1.3,9.4,3.6c2.5,2.4,3.8,5.4,3.8,8.7h9.3
			c0-4.3-1.3-8.3-3.8-11.8c2.4-3.4,3.8-7.3,3.8-11.4c0.4,0,0.8-0.1,1.2-0.1c4.2,0,8.1,1.8,10.6,5c3.1,3.8,3.5,9.1,1,13.3l-1.1,1.9
			l0.9,2l0.9,2l2.1,0.6c4.9,1.3,8.4,5,9.3,9.6c0.7,4-0.7,8.2-3.7,11H189c-0.8-3.9-3-7.6-6.1-10.5c-4.1-3.8-9.7-6.2-15.9-6.2h-13.2
			V88.1L153.8,88.1z M214.4,153.3c-0.9,4.6-4.5,8.3-9.3,9.6l-2.1,0.6l-1.9,4l1.1,1.9c2.5,4.3,2.1,9.4-1,13.3
			c-2.5,3.1-6.4,4.9-10.6,4.9c-0.4,0-0.8,0-1.2-0.1c-0.1-4.1-1.4-8.1-3.8-11.4c2.5-3.5,3.8-7.5,3.8-11.8h-9.3c0,3.3-1.4,6.4-3.8,8.7
			c-2.5,2.4-5.8,3.6-9.4,3.6v8.7c4.2,0,8.2-1,11.7-3c0.9,1.7,1.5,3.7,1.5,5.7c0,0.7-0.1,1.4-0.2,2.1l-0.1,0.3
			c-1.2,5.7-6.7,9.9-12.9,9.9c-7.3,0-13.2-5.5-13.2-12.3v-62.2H167c7,0,12.7,5.1,13.2,11.6c0,0,0,0,0,0.1c0,0.2,0,0.4,0,0.6
			c0,3.3-1.4,6.4-3.8,8.7l6.6,6.1c3.1-2.9,5.2-6.5,6.1-10.5h21.7C213.8,145.2,215.2,149.3,214.4,153.3z"/>
	</g>
</g>
</svg>
