<?xml version="1.0" encoding="utf-8"?>
<!-- Generator: Adobe Illustrator 22.0.1, SVG Export Plug-In . SVG Version: 6.00 Build 0)  -->
<svg version="1.1" id="Capa_1" xmlns="http://www.w3.org/2000/svg" xmlns:xlink="http://www.w3.org/1999/xlink" x="0px" y="0px"
	 viewBox="0 0 326 314" style="enable-background:new 0 0 326 314;" xml:space="preserve">
<style type="text/css">
	.st0{fill:#32C4E9;}
</style>
<path class="st0" d="M303.6,290.4l-76.6-77.9c19.5-19.2,31.7-45.6,31.7-74.7C258.6,79.4,210,32,150.3,32S42,79.4,42,137.8
	s48.6,105.8,108.3,105.8c26.2,0,50.3-9.2,69-24.4l76.8,78.1c1,1,2.4,1.5,3.7,1.5c1.3,0,2.6-0.5,3.6-1.4
	C305.5,295.6,305.5,292.4,303.6,290.4z M150.3,233.5c-54,0-98-43-98-95.8s44-95.8,98-95.8s98,43,98,95.8S204.3,233.5,150.3,233.5z"
	/>
<g id="XMLID_511_">
	<g>
		<path class="st0" d="M224.7,137.5c4.3-5.4,6.2-12.4,4.9-19.4c-1.3-7.3-5.8-13.3-12-16.8c2-7.2,0.7-15-3.9-21.1
			c-4.5-6-11.7-9.6-19.2-9.6c-1.1,0-2.1,0.1-3.2,0.2c-3.7-8.7-12.3-14.7-22.1-14.7c-7.8,0-14.7,3.7-19.1,9.4
			c-4.4-5.7-11.3-9.4-19.1-9.4c-9.8,0-18.4,5.9-22.1,14.7c-1.1-0.1-2.1-0.2-3.2-0.2c-7.6,0-14.7,3.5-19.2,9.6
			c-4.6,6.1-5.9,14-3.9,21.1c-6.3,3.4-10.7,9.5-12,16.8c-1.3,6.9,0.6,14,4.9,19.4c-4.3,5.4-6.2,12.4-4.9,19.4
			c1.3,7.3,5.8,13.3,12,16.8c-2,7.2-0.7,15,3.9,21.1c4.5,6,11.7,9.6,19.2,9.6c1.1,0,2.1-0.1,3.2-0.2c3.7,8.7,12.3,14.7,22.1,14.7
			c7.8,0,14.7-3.7,19.1-9.4c4.4,5.7,11.3,9.4,19.1,9.4c9.8,0,18.4-5.9,22.1-14.7c1.1,0.1,2.1,0.2,3.2,0.2c7.6,0,14.7-3.5,19.2-9.6
			c4.6-6.1,5.9-14,3.9-21.1c6.3-3.4,10.7-9.5,12-16.8C230.8,150,229,142.9,224.7,137.5z M145.1,194.8c0,7.8-6.3,14.1-14.1,14.1
			c-6.7,0-12.5-4.8-13.8-11.4l-0.1-0.3c-0.1-0.8-0.2-1.6-0.2-2.4c0-2.3,0.5-4.5,1.6-6.5c3.7,2.3,8,3.5,12.5,3.5l0-10
			c-3.8,0-7.3-1.5-10-4.1c-2.7-2.7-4.1-6.2-4.1-10l-9.9,0c0,4.9,1.4,9.5,4.1,13.5c-2.6,3.9-4.1,8.4-4.1,13.1c-0.4,0-0.9,0.1-1.3,0.1
			c-4.5,0-8.6-2.1-11.3-5.7c-3.3-4.4-3.7-10.4-1.1-15.3l1.2-2.2l-2-4.6l-2.2-0.7c-5.2-1.5-9-5.7-9.9-11c-0.8-4.6,0.7-9.4,4-12.6
			h23.1c0.9,4.5,3.2,8.7,6.5,12c4.4,4.4,10.4,7.1,17,7.1h14.1V194.8L145.1,194.8z M145.1,151.7H131c-7.5,0-13.6-5.9-14.1-13.3
			c0,0,0,0,0-0.1c0-0.2,0-0.5,0-0.7c0-3.8,1.5-7.3,4.1-10l-7-7c-3.3,3.3-5.6,7.5-6.5,12H84.4c-3.3-3.3-4.9-8-4-12.6
			c1-5.3,4.8-9.5,9.9-11l2.2-0.7l2-4.6l-1.2-2.2c-2.7-4.9-2.2-10.8,1.1-15.3c2.7-3.6,6.8-5.6,11.3-5.6c0.4,0,0.9,0,1.3,0.1
			c0.1,4.7,1.5,9.3,4.1,13.1c-2.7,4-4.1,8.6-4.1,13.5l9.9,0c0-3.8,1.5-7.3,4.1-10c2.7-2.7,6.2-4.1,10-4.1c0,0,0-10,0-10
			c-4.5,0-8.8,1.2-12.5,3.5c-1-2-1.6-4.2-1.6-6.5c0-0.8,0.1-1.6,0.2-2.3l0.1-0.4c1.3-6.6,7.1-11.4,13.8-11.4
			c7.8,0,14.1,6.3,14.1,14.1V151.7z M155.1,80.2c0-7.8,6.3-14.1,14.1-14.1c6.7,0,12.5,4.8,13.8,11.4l0.1,0.3
			c0.1,0.8,0.2,1.6,0.2,2.4c0,2.3-0.5,4.5-1.6,6.5c-3.7-2.3-8-3.5-12.5-3.5l0,10c3.8,0,7.3,1.5,10,4.1c2.7,2.7,4.1,6.2,4.1,10l9.9,0
			c0-4.9-1.4-9.5-4.1-13.5c2.6-3.9,4.1-8.4,4.1-13.1c0.4,0,0.9-0.1,1.3-0.1c4.5,0,8.6,2.1,11.3,5.7c3.3,4.4,3.7,10.4,1.1,15.3
			l-1.2,2.2l1,2.3l1,2.3l2.2,0.7c5.2,1.5,9,5.7,9.9,11c0.8,4.6-0.7,9.4-4,12.6h-23.1c-0.9-4.5-3.2-8.7-6.5-12
			c-4.4-4.4-10.4-7.1-17-7.1h-14.1L155.1,80.2L155.1,80.2z M219.8,155.1c-1,5.3-4.8,9.5-9.9,11l-2.2,0.7l-2,4.6l1.2,2.2
			c2.7,4.9,2.2,10.8-1.1,15.3c-2.7,3.6-6.8,5.6-11.3,5.6c-0.4,0-0.9,0-1.3-0.1c-0.1-4.7-1.5-9.3-4.1-13.1c2.7-4,4.1-8.6,4.1-13.5
			l-9.9,0c0,3.8-1.5,7.3-4.1,10c-2.7,2.7-6.2,4.1-10,4.1c0,0,0,10,0,10c4.5,0,8.8-1.2,12.5-3.5c1,2,1.6,4.2,1.6,6.5
			c0,0.8-0.1,1.6-0.2,2.4l-0.1,0.3c-1.3,6.6-7.1,11.4-13.8,11.4c-7.8,0-14.1-6.3-14.1-14.1v-71.4h14.1c7.5,0,13.6,5.9,14.1,13.3
			c0,0,0,0,0,0.1c0,0.2,0,0.5,0,0.7c0,3.8-1.5,7.3-4.1,10l7,7c3.3-3.3,5.6-7.5,6.5-12h23.1C219.1,145.8,220.6,150.5,219.8,155.1z"/>
	</g>
</g>
</svg>
