<?xml version="1.0" encoding="utf-8"?>
<!-- Generator: Adobe Illustrator 22.0.1, SVG Export Plug-In . SVG Version: 6.00 Build 0)  -->
<svg version="1.1" id="图层_1" xmlns="http://www.w3.org/2000/svg" xmlns:xlink="http://www.w3.org/1999/xlink" x="0px" y="0px"
	 viewBox="0 0 600 600" style="enable-background:new 0 0 600 600;" xml:space="preserve">
<style type="text/css">
	.st0{fill:#32C4E9;}
</style>
<path class="st0" d="M445.2,157.6l25.7-23.4C429.1,91,371.2,63.4,306.9,61.5v34.8C361,98.2,409.8,121.3,445.2,157.6z"/>
<path class="st0" d="M292.2,96.3V61.5c-14.3,0.4-28.3,2.1-41.8,4.9l8.2,33.8C269.5,98,280.7,96.7,292.2,96.3z"/>
<path class="st0" d="M480.7,206.8l31.5-14.7c-8.6-16.9-19.2-32.7-31.4-47l-25.8,23.3C465.1,180.2,473.7,193.1,480.7,206.8z"/>
<path class="st0" d="M299.5,503.8c-53.1,0-101.5-20.5-137.8-53.8l-24.5,24.7c42.7,39.6,99.6,63.8,162.2,63.8
	c18.5,0,36.5-2.2,53.8-6.2l-8.9-33.7C330,501.9,314.9,503.8,299.5,503.8z"/>
<path class="st0" d="M403.3,475.2c5.7,10.5,11.2,20.7,16.6,30.6c32-18.8,59.3-44.9,79.5-75.9l-29.7-18
	C452.7,437.7,430,459.4,403.3,475.2z"/>
<path class="st0" d="M477.4,399.3l29.7,18c13.6-24,23.2-50.6,27.9-78.8l-34.5-4.6C496.5,357.4,488.6,379.4,477.4,399.3z"/>
<path class="st0" d="M518.5,205.4l-31.5,14.7c10.5,24.5,16.3,51.5,16.3,79.8c0,6.6-0.4,13.1-1,19.5l34.5,4.6
	c0.8-7.9,1.2-16,1.2-24.1C538.1,266.3,531.2,234.4,518.5,205.4z"/>
<path class="st0" d="M117.2,208.9l-30.6-16.6c-15.4,30.3-24.5,64.3-25.6,100.4h34.7C96.9,262.6,104.5,234.2,117.2,208.9z"/>
<path class="st0" d="M167.5,144.8l-21.6-27.3c-20.6,17.4-38.4,38.4-52.2,61.9l30.5,16.6C135.7,176.6,150.4,159.3,167.5,144.8z"/>
<path class="st0" d="M130.6,413.9l-29.5,18.4c7.7,11.4,16.3,22.1,25.8,32l24.5-24.7C143.7,431.6,136.8,423,130.6,413.9z"/>
<path class="st0" d="M95.8,307.3H61.1c1.2,41,12.8,79.3,32.3,112.6l29.5-18.4C106.8,373.5,97.1,341.4,95.8,307.3z"/>
<path class="st0" d="M453.4,299.9c0,4.3-0.3,8.7-0.6,12.9l35,4.6c0.6-5.8,0.9-11.6,0.9-17.6c0-26.1-5.3-50.9-14.9-73.6l-32,15
	C449.3,259.4,453.4,279.2,453.4,299.9z"/>
<path class="st0" d="M173,387.5l-29.9,18.6c5.5,8.2,11.7,15.9,18.5,23.1l24.8-25.1C181.6,398.8,177.1,393.3,173,387.5z"/>
<path class="st0" d="M172.1,81.2L152.3,45c-10.3,5.9-20.2,12.4-29.6,19.5l25.6,32.4C155.9,91.1,163.8,86,172.1,81.2z"/>
<path class="st0" d="M552.8,299.9c0,8.8-0.5,17.5-1.3,26.1l40.7,5.4c1.2-10.3,1.7-20.8,1.7-31.5c0-42.1-8.8-82.1-24.8-118.3
	l-37.3,17.5C545.3,230.1,552.8,264.1,552.8,299.9z"/>
<path class="st0" d="M481.8,124.4l30.5-27.8c-52-54.5-124.7-89-205.5-90.9v41.1C375.5,48.8,437.3,78.1,481.8,124.4z"/>
<path class="st0" d="M232.7,55.7L223,15.6c-20.2,5.4-39.6,13-57.8,22.4l19.7,36.2C200,66.4,216.1,60.2,232.7,55.7z"/>
<path class="st0" d="M73.8,185.2l-36.2-19.8C17.9,203.7,6.4,246.8,5.2,292.6h41.1C47.5,254,57.2,217.6,73.8,185.2z"/>
<path class="st0" d="M299.5,553.2c-66.6,0-127.3-25.8-172.5-68l-29,29.3c52.6,49.5,123.5,79.8,201.5,79.8c23.4,0,46.2-2.8,68.1-8
	l-10.5-39.8C338.6,550.9,319.3,553.2,299.5,553.2z"/>
<path class="st0" d="M46.4,307.3H5.2c1.3,51.8,15.9,100.3,40.7,142.2l35-21.8C60,392,47.7,351.1,46.4,307.3z"/>
<path class="st0" d="M145.9,307.3c-0.1-2.4-0.3-4.9-0.3-7.3c0-2.5,0.3-4.9,0.3-7.3c1-21.3,6.4-41.5,15.3-59.8l-31-16.9
	c-11.6,23.3-18.5,49.2-19.6,76.7c-0.1,2.4-0.2,4.9-0.2,7.3c0,2.5,0.1,4.9,0.2,7.3c1.2,31.4,10.1,60.7,24.8,86.4l29.9-18.6
	C153.9,354.8,147.1,331.8,145.9,307.3z"/>
<path class="st0" d="M444.2,178.4c-3.1-3.8-6.4-7.4-9.8-10.9c-32.8-33.3-77.7-54.6-127.5-56.5v35.4c39.5,1.9,75.2,18.5,101.4,44.8
	c3.4,3.5,6.8,7,9.9,10.9c6.7,8,12.5,16.8,17.4,26.1l31.9-15C461,200.6,453.2,189,444.2,178.4z"/>
<path class="st0" d="M428.5,247.6c-1.8-4.5-3.9-9-6.2-13.3c-4.3-8-9.3-15.5-15-22.4c-3.1-3.8-6.4-7.4-9.8-10.9
	c-23.6-23.3-55.4-38.1-90.6-40v33.2c25.4,1.8,48.5,12.5,65.9,29.2c3.6,3.4,6.9,7,9.9,10.9c3.5,4.4,6.7,9.1,9.5,14.1
	c2.4,4.3,4.5,8.7,6.2,13.3c4.6,11.9,7.3,24.7,7.3,38.2c0,2.2-0.2,4.4-0.4,6.6l33,4.4c0.3-3.7,0.6-7.3,0.6-11
	C438.8,281.4,435.1,263.8,428.5,247.6z"/>
<path class="st0" d="M236.2,69.9c-15.5,4.3-30.2,10-44.3,17.1c-4.3,2.2-8.6,4.6-12.8,7.1c-7.5,4.4-14.8,9.1-21.6,14.3l21.5,27.3
	c5.4-3.9,10.9-7.6,16.8-11c4.2-2.5,8.5-4.8,12.9-7.1c11.3-5.7,23.3-10.3,35.8-13.8L236.2,69.9z"/>
<path class="st0" d="M345.9,446.7c-4.7,1.5-9.4,2.7-14.2,3.8c-10.4,2.2-21.1,3.4-32.2,3.4c-39.5,0-75.4-15.1-102.6-39.5L172,439.5
	c33.7,30.7,78.3,49.5,127.5,49.5c14.1,0,27.9-1.6,41.2-4.6c4.8-1.1,9.5-2.3,14.2-3.7c9.9-3,19.4-6.9,28.5-11.3
	c-6.6-12-15.4-28.3-16.9-31.1C359.8,441.5,353,444.5,345.9,446.7z"/>
<path class="st0" d="M450.8,327.4c-3,16.3-8.4,31.8-16.1,45.9c-2.4,4.3-4.9,8.5-7.7,12.6c-12.4,18.3-28.8,33.7-47.8,45.3
	c1.6,2.8,10.4,19,16.9,31c24.4-14.6,45.2-34.5,61-58.1c2.7-4.1,5.2-8.3,7.6-12.5c10.1-18.3,17.4-38.3,21-59.6L450.8,327.4z"/>
<path class="st0" d="M262.1,114.5c-4.8,0.9-9.6,2.1-14.3,3.5c-11.2,3.1-21.9,7.3-32.2,12.4c-4.4,2.2-8.7,4.5-12.9,7.1
	c-5,3-9.9,6.2-14.6,9.6c-4,2.9-7.8,6-11.5,9.2c-15.5,13.3-28.8,29-39.5,46.7l31.1,16.9c8.3-13.4,18.5-25.6,30.3-35.9
	c3.7-3.2,7.6-6.2,11.5-9.1c3.1-2.3,6.4-4.3,9.6-6.3c4.1-2.5,8.4-4.9,12.9-7.1c7.6-3.6,15.4-6.8,23.6-9.2c4.7-1.3,9.4-2.6,14.2-3.5
	c7.2-1.4,14.4-2.1,21.8-2.5V111C281.9,111.4,271.9,112.5,262.1,114.5z"/>
<path class="st0" d="M403.4,321.1c-2,9.7-5.3,18.9-9.7,27.4c-2.3,4.4-4.8,8.5-7.6,12.6c-8,11.2-18,20.8-29.6,28.1
	c-4.1,2.7-8.4,5-12.9,7.1c-3.2,1.5-6.5,2.8-10,4c-4.6,1.6-9.3,2.8-14.1,3.8c-6.5,1.2-13.1,1.9-20,1.9c-26.4,0-50.4-9.7-69-25.7
	c-3.8-3.2-7.2-6.6-10.5-10.3c-2.2-2.6-4.3-5.2-6.3-7.9l-28.2,17.6c3.5,4.9,7.2,9.5,11.2,13.9c3.3,3.6,6.8,7.1,10.5,10.3
	c24.5,21.9,56.9,35.3,92.3,35.3c9.7,0,19.2-1.1,28.5-2.9c4.8-1,9.6-2.3,14.1-3.8c6-1.9,11.7-4.3,17.3-7c4.4-2.1,8.7-4.5,12.9-7
	c16.6-10.4,31.1-24,42.2-40.1c2.8-4.1,5.2-8.2,7.6-12.6c6.7-12.3,11.5-25.9,14.1-40.3L403.4,321.1z"/>
<path class="st0" d="M273.9,163.2c-4.9,0.9-9.6,2-14.3,3.4c-7,2.1-13.6,4.7-20,7.9c-4.4,2.1-8.8,4.4-12.9,7c-2.6,1.6-5,3.2-7.5,5
	c-4.1,2.8-7.9,5.9-11.5,9.1c-10.3,9.1-19.2,19.7-26.5,31.4c-2.6,4.2-5,8.5-7.1,12.9c-7.7,16.1-12.4,33.8-13.4,52.7
	c-0.1,2.4-0.4,4.9-0.4,7.3c0,2.5,0.3,4.9,0.4,7.3c1.1,21.7,7.1,42.1,17.1,60l28.2-17.5c-6.9-12.8-11.1-27.2-12.1-42.5
	c-0.1-2.4-0.4-4.9-0.4-7.3c0-2.5,0.3-4.9,0.4-7.3c0.9-13.1,4.1-25.5,9.4-36.8c2-4.5,4.4-8.8,7-12.9c5.1-7.9,11.1-15,18-21.3
	c3.6-3.3,7.4-6.4,11.5-9.2c0.9-0.7,1.9-1.2,2.8-1.9c4.1-2.6,8.4-4.9,12.9-7c3.9-1.8,7.9-3.4,12-4.7c4.7-1.5,9.4-2.6,14.3-3.4
	c3.4-0.6,6.9-1,10.5-1.3V161C286,161.4,279.8,162,273.9,163.2z"/>
</svg>
