<?xml version="1.0" encoding="utf-8"?>
<!-- Generator: Adobe Illustrator 22.0.1, SVG Export Plug-In . SVG Version: 6.00 Build 0)  -->
<svg version="1.1" id="Layer_1" xmlns="http://www.w3.org/2000/svg" xmlns:xlink="http://www.w3.org/1999/xlink" x="0px" y="0px"
	 viewBox="0 0 1250.9 726.2" style="enable-background:new 0 0 1250.9 726.2;" xml:space="preserve">
<style type="text/css">
	.st0{display:none;fill:none;stroke:#AAAAAA;}
	.st1{fill:#A6CEE3;}
	.st2{fill:#1F78B4;}
	.st3{fill:#B2DF8A;}
	.st4{fill:#33A02C;}
	.st5{fill:#FB9A99;}
	.st6{fill:#E31A1C;}
	.st7{fill:#FDBF6F;}
	.st8{fill:#FF7F00;}
	.st9{fill:#CAB2D6;}
	.st10{fill:#6A3D9A;}
	.st11{fill:none;stroke:#000000;}
	.st12{display:none;}
	.st13{display:inline;}
	.st14{font-family:'Lato-Regular';}
	.st15{font-size:12px;}
	.st16{display:inline;fill:none;stroke:#000000;}
	.st17{fill-opacity:0.1;}
	.st18{fill:none;stroke:#32C4E9;}
	.st19{fill:none;stroke:#000000;stroke-miterlimit:10;}
	.st20{fill:none;}
</style>
<rect  fill="white" height="150%" style="cursor:default;font-family:Lato, &apos;Helvetica Neue&apos;, Arial, Helvetica, sans-serif;;height:auto;font-family:Lato, &apos;Helvetica Neue&apos;, Arial, Helvetica, sans-serif;" width="150%" x="-30px" xmlns="http://www.w3.org/1999/xhtml" y="-14px">
	</rect>
<g transform="translate(50.5,12.5)">
	<g>
		<g>
			<line class="st0" x1="861.7" y1="142.3" x2="861.7" y2="590.3"/>
		</g>
	</g>
	<g>
		<g>
			<g>
				<g>
					<path class="st1" d="M101.1,576.6v-9.1h55.2v9.1H101.1z"/>
					<path class="st1" d="M193.1,576.6v-9.1h55.2v9.1H193.1z"/>
					<path class="st1" d="M285.1,567.6V554h55.2v13.6H285.1z"/>
					<path class="st1" d="M376.1,575.1v-13.6h55.2v13.6H376.1z"/>
					<path class="st1" d="M468.1,549.4v-21.1h55.2v21.1H468.1z"/>
					<path class="st1" d="M559.1,549.4v-33.2h55.2v33.2H559.1z"/>
					<path class="st1" d="M651.1,519.2v-45.3h55.2v45.3H651.1z"/>
					<path class="st1" d="M743.1,493.6v-68h55.2v68H743.1z"/>
					<path class="st1" d="M834.1,439.2v-55.9h55.2v55.9H834.1z"/>
					<path class="st1" d="M926.1,508.7V486h55.2v22.7H926.1z"/>
				</g>
			</g>
			<g>
				<g>
					<path class="st2" d="M101.1,546.4v-15.1h55.2v15.1H101.1z"/>
					<path class="st2" d="M193.1,547.9v-18.1h55.2v18.1H193.1z"/>
					<path class="st2" d="M285.1,535.9v-28.7h55.2v28.7H285.1z"/>
					<path class="st2" d="M376.1,538.9v-22.7h55.2v22.7H376.1z"/>
					<path class="st2" d="M468.1,501.1v-60.4h55.2v60.4H468.1z"/>
					<path class="st2" d="M559.1,467.9v-51.3h55.2v51.3H559.1z"/>
					<path class="st2" d="M651.1,437.7V338h55.2v99.7H651.1z"/>
					<path class="st2" d="M743.1,386.3V230.8h55.2v155.6h-55.2V386.3z"/>
					<path class="st2" d="M834.1,342.5V184h55.2v158.6h-55.2V342.5z"/>
					<path class="st2" d="M926.1,464.9v-87.6h55.2v87.6H926.1z"/>
				</g>
			</g>
			<g>
				<g>
					<path class="st3" d="M101.1,567.6v-21.1h55.2v21.1H101.1z"/>
					<path class="st3" d="M193.1,567.6V548h55.2v19.6H193.1z"/>
					<path class="st3" d="M285.1,554v-18.1h55.2V554H285.1z"/>
					<path class="st3" d="M376.1,561.5v-22.7h55.2v22.7H376.1z"/>
					<path class="st3" d="M468.1,528.3v-27.2h55.2v27.2H468.1z"/>
					<path class="st3" d="M559.1,516.2v-48.3h55.2v48.3H559.1z"/>
					<path class="st3" d="M651.1,473.9v-36.2h55.2v36.2H651.1z"/>
					<path class="st3" d="M743.1,425.6v-39.3h55.2v39.3H743.1z"/>
					<path class="st3" d="M834.1,383.3v-40.8h55.2v40.8H834.1z"/>
					<path class="st3" d="M926.1,486v-21.1h55.2V486H926.1z"/>
				</g>
			</g>
			<g>
				<g>
					<path class="st4" d="M101.1,588.7v-3h55.2v3H101.1z"/>
					<path class="st4" d="M193.1,587.2L193.1,587.2h55.2l0,0H193.1z"/>
					<path class="st4" d="M285.1,585.7v-7.6h55.2v7.6H285.1z"/>
					<path class="st4" d="M376.1,588.7v-1.5h55.2v1.5H376.1z"/>
					<path class="st4" d="M468.1,582.7v-3h55.2v3H468.1z"/>
					<path class="st4" d="M559.1,585.7v-6h55.2v6H559.1z"/>
					<path class="st4" d="M651.1,579.6v-6h55.2v6H651.1z"/>
					<path class="st4" d="M743.1,579.6V566h55.2v13.6H743.1z"/>
					<path class="st4" d="M834.1,569.1v-7.6h55.2v7.6H834.1z"/>
					<path class="st4" d="M926.1,575.1v-7.6h55.2v7.6H926.1z"/>
				</g>
			</g>
			<g>
				<g>
					<path class="st5" d="M101.1,585.7v-3h55.2v3H101.1z"/>
					<path class="st5" d="M193.1,587.2L193.1,587.2h55.2l0,0H193.1z"/>
					<path class="st5" d="M285.1,578.1v-3h55.2v3H285.1z"/>
					<path class="st5" d="M376.1,587.2v-3h55.2v3H376.1z"/>
					<path class="st5" d="M468.1,579.6V572h55.2v7.6H468.1z"/>
					<path class="st5" d="M559.1,579.6v-3h55.2v3H559.1z"/>
					<path class="st5" d="M651.1,573.6v-12.1h55.2v12.1H651.1z"/>
					<path class="st5" d="M743.1,566.1v-13.6h55.2v13.6H743.1z"/>
					<path class="st5" d="M834.1,561.5v-13.6h55.2v13.6H834.1z"/>
					<path class="st5" d="M926.1,567.6V563h55.2v4.5L926.1,567.6L926.1,567.6z"/>
				</g>
			</g>
			<g>
				<g>
					<path class="st6" d="M101.1,576.6L101.1,576.6h55.2l0,0H101.1z"/>
					<path class="st6" d="M193.1,576.6L193.1,576.6h55.2l0,0H193.1z"/>
					<path class="st6" d="M285.1,567.6L285.1,567.6h55.2l0,0H285.1z"/>
					<path class="st6" d="M376.1,575.1L376.1,575.1h55.2l0,0H376.1z"/>
					<path class="st6" d="M468.1,551v-1.5h55.2v1.5H468.1z"/>
					<path class="st6" d="M559.1,557v-7.6h55.2v7.6H559.1z"/>
					<path class="st6" d="M651.1,534.3v-15.1h55.2v15.1H651.1z"/>
					<path class="st6" d="M743.1,526.8v-33.2h55.2v33.2H743.1z"/>
					<path class="st6" d="M834.1,499.6v-60.4h55.2v60.4H834.1z"/>
					<path class="st6" d="M926.1,540.4v-31.7h55.2v31.7H926.1z"/>
				</g>
			</g>
			<g>
				<g>
					<path class="st7" d="M101.1,582.7v-3h55.2v3H101.1z"/>
					<path class="st7" d="M193.1,587.2v-3h55.2v3H193.1z"/>
					<path class="st7" d="M285.1,575.1v-6h55.2v6H285.1z"/>
					<path class="st7" d="M376.1,584.2v-3h55.2v3H376.1z"/>
					<path class="st7" d="M468.1,572.1v-6h55.2v6H468.1z"/>
					<path class="st7" d="M559.1,576.6v-9.1h55.2v9.1H559.1z"/>
					<path class="st7" d="M651.1,561.5v-12.1h55.2v12.1H651.1z"/>
					<path class="st7" d="M743.1,552.5v-7.6h55.2v7.6H743.1z"/>
					<path class="st7" d="M834.1,547.9v-15.1h55.2v15.1H834.1z"/>
					<path class="st7" d="M926.1,563v-4.5h55.2v4.5H926.1z"/>
				</g>
			</g>
			<g>
				<g>
					<path class="st8" d="M101.1,590.2v-1.5h55.2v1.5H101.1z"/>
					<path class="st8" d="M193.1,588.7v-1.5h55.2v1.5H193.1z"/>
					<path class="st8" d="M285.1,588.7v-3h55.2v3H285.1z"/>
					<path class="st8" d="M376.1,590.2v-1.5h55.2v1.5H376.1z"/>
					<path class="st8" d="M468.1,587.2v-4.5h55.2v4.5H468.1z"/>
					<path class="st8" d="M559.1,588.7v-3h55.2v3H559.1z"/>
					<path class="st8" d="M651.1,588.7v-9.1h55.2v9.1H651.1z"/>
					<path class="st8" d="M743.1,588.7v-9.1h55.2v9.1H743.1z"/>
					<path class="st8" d="M834.1,578.1V569h55.2v9.1H834.1z"/>
					<path class="st8" d="M926.1,579.6v-4.5h55.2v4.5H926.1z"/>
				</g>
			</g>
			<g>
				<g>
					<path class="st9" d="M101.1,579.6v-3h55.2v3H101.1z"/>
					<path class="st9" d="M193.1,584.2v-7.6h55.2v7.6H193.1z"/>
					<path class="st9" d="M285.1,569.1v-1.5h55.2v1.5H285.1z"/>
					<path class="st9" d="M376.1,581.2v-6h55.2v6H376.1z"/>
					<path class="st9" d="M468.1,566.1V551h55.2v15.1H468.1z"/>
					<path class="st9" d="M559.1,567.6V557h55.2v10.6H559.1z"/>
					<path class="st9" d="M651.1,549.4v-15.1h55.2v15.1H651.1z"/>
					<path class="st9" d="M743.1,544.9v-18.1h55.2v18.1H743.1z"/>
					<path class="st9" d="M834.1,532.8v-33.2h55.2v33.2H834.1z"/>
					<path class="st9" d="M926.1,558.5v-18.1h55.2v18.1H926.1z"/>
				</g>
			</g>
			<g>
				<g>
					<path class="st10" d="M101.1,590.2L101.1,590.2h55.2l0,0H101.1z"/>
					<path class="st10" d="M193.1,590.2v-1.5h55.2v1.5H193.1z"/>
					<path class="st10" d="M285.1,590.2v-1.5h55.2v1.5H285.1z"/>
					<path class="st10" d="M376.1,590.2L376.1,590.2h55.2l0,0H376.1z"/>
					<path class="st10" d="M468.1,590.2v-3h55.2v3H468.1z"/>
					<path class="st10" d="M559.1,590.2v-1.5h55.2v1.5H559.1z"/>
					<path class="st10" d="M651.1,590.2v-1.5h55.2v1.5H651.1z"/>
					<path class="st10" d="M743.1,590.2v-1.5h55.2v1.5H743.1z"/>
					<path class="st10" d="M834.1,590.2v-12.1h55.2v12.1H834.1z"/>
					<path class="st10" d="M926.1,590.2v-10.6h55.2v10.6H926.1z"/>
				</g>
			</g>
		</g>
		<g transform="translate(457.875,218.9375)">
		</g>
	</g>
	<g transform="translate(0,447.875)">
		<g transform="translate(46, 0)">
			<path class="st11" d="M128.7,142.3"/>
		</g>
		<g transform="translate(138, 0)">
			<path class="st11" d="M128.7,142.3"/>
		</g>
		<g transform="translate(230, 0)">
			<path class="st11" d="M128.7,142.3"/>
		</g>
		<g transform="translate(321, 0)">
			<path class="st11" d="M128.7,142.3"/>
		</g>
		<g transform="translate(413, 0)">
			<path class="st11" d="M128.7,142.3"/>
		</g>
		<g transform="translate(504, 0)">
			<path class="st11" d="M128.7,142.3"/>
		</g>
		<g transform="translate(596, 0)">
			<path class="st11" d="M128.7,142.3"/>
		</g>
		<g transform="translate(688, 0)">
			<path class="st11" d="M128.7,142.3"/>
		</g>
		<g transform="translate(779, 0)">
			<path class="st11" d="M128.7,142.3"/>
		</g>
		<g transform="translate(871, 0)">
			<line class="st11" x1="128.7" y1="142.3" x2="128.7" y2="142.3"/>
		</g>
		<path class="st11" d="M998.5,142.3"/>
	</g>
	<g transform="translate(915.75,0)" class="st12">
		<g transform="translate(0,448)" class="st13">
			<line class="st11" x1="82.7" y1="142.3" x2="88.7" y2="142.3"/>
			<text transform="matrix(1 0 0 1 91.7378 145.344)" class="st14 st15">0</text>
		</g>
		<g transform="translate(0,404)" class="st13">
			<line class="st11" x1="82.7" y1="142.3" x2="88.7" y2="142.3"/>
			<text transform="matrix(1 0 0 1 91.7378 145.344)" class="st14 st15">0.1</text>
		</g>
		<g transform="translate(0,359)" class="st13">
			<line class="st11" x1="82.7" y1="142.3" x2="88.7" y2="142.3"/>
			<text transform="matrix(1 0 0 1 91.7378 145.344)" class="st14 st15">0.2</text>
		</g>
		<g transform="translate(0,314)" class="st13">
			<line class="st11" x1="82.7" y1="142.3" x2="88.7" y2="142.3"/>
			<text transform="matrix(1 0 0 1 91.7378 145.344)" class="st14 st15">0.3</text>
		</g>
		<g transform="translate(0,270)" class="st13">
			<line class="st11" x1="82.7" y1="142.3" x2="88.7" y2="142.3"/>
			<text transform="matrix(1 0 0 1 91.7378 145.344)" class="st14 st15">0.4</text>
		</g>
		<g transform="translate(0,225)" class="st13">
			<line class="st11" x1="82.7" y1="142.3" x2="88.7" y2="142.3"/>
			<text transform="matrix(1 0 0 1 91.7378 145.344)" class="st14 st15">0.5</text>
		</g>
		<g transform="translate(0,180)" class="st13">
			<line class="st11" x1="82.7" y1="142.3" x2="88.7" y2="142.3"/>
			<text transform="matrix(1 0 0 1 91.7378 145.344)" class="st14 st15">0.6</text>
		</g>
		<g transform="translate(0,136)" class="st13">
			<line class="st11" x1="82.7" y1="142.3" x2="88.7" y2="142.3"/>
			<text transform="matrix(1 0 0 1 91.7378 145.344)" class="st14 st15">0.7</text>
		</g>
		<g transform="translate(0,91)" class="st13">
			<line class="st11" x1="82.7" y1="142.3" x2="88.7" y2="142.3"/>
			<text transform="matrix(1 0 0 1 91.7378 145.344)" class="st14 st15">0.8</text>
		</g>
		<g transform="translate(0,46)" class="st13">
			<line class="st11" x1="82.7" y1="142.3" x2="88.7" y2="142.3"/>
			<text transform="matrix(1 0 0 1 91.7378 145.344)" class="st14 st15">0.9</text>
		</g>
		<g transform="translate(0,1)" class="st13">
			<line class="st11" x1="82.7" y1="142.3" x2="88.7" y2="142.3"/>
			<text transform="matrix(1 0 0 1 91.7378 145.344)" class="st14 st15">1</text>
		</g>
		<path class="st16" d="M88.7,143.3h-6v446.9h6"/>
	</g>
</g>
<g transform="translate(20.5,534.5)" class="st12">
	<g class="st13">
		<polygon points="82.7,142.3 1028.5,142.3 1028.5,142.3 		"/>
		<path class="st17" d="M82.7,142.3L82.7,142.3L82.7,142.3z"/>
		<g transform="translate(0,0)">
			<rect x="79.7" y="142.3" width="6" height="6"/>
		</g>
		<g transform="translate(0,0)">
			<rect x="79.7" y="142.3" width="6" height="6"/>
		</g>
	</g>
	<g transform="translate(0,0)" class="st13">
		<g transform="translate(46, 0)">
			<line class="st11" x1="128.7" y1="142.3" x2="128.7" y2="148.3"/>
			<text transform="matrix(1 0 0 1 68.8181 159.864)" class="st14 st15">2009</text>
		</g>
		<g transform="translate(138, 0)">
			<line class="st11" x1="128.7" y1="142.3" x2="128.7" y2="148.3"/>
			<text transform="matrix(1 0 0 1 68.8181 159.864)" class="st14 st15">2010</text>
		</g>
		<g transform="translate(230, 0)">
			<line class="st11" x1="128.7" y1="142.3" x2="128.7" y2="148.3"/>
			<text transform="matrix(1 0 0 1 68.8181 159.864)" class="st14 st15">2011</text>
		</g>
		<g transform="translate(321, 0)">
			<line class="st11" x1="128.7" y1="142.3" x2="128.7" y2="148.3"/>
			<text transform="matrix(1 0 0 1 68.8181 159.864)" class="st14 st15">2012</text>
		</g>
		<g transform="translate(413, 0)">
			<line class="st11" x1="128.7" y1="142.3" x2="128.7" y2="148.3"/>
			<text transform="matrix(1 0 0 1 68.8181 159.864)" class="st14 st15">2013</text>
		</g>
		<g transform="translate(504, 0)">
			<line class="st11" x1="128.7" y1="142.3" x2="128.7" y2="148.3"/>
			<text transform="matrix(1 0 0 1 68.8181 159.864)" class="st14 st15">2014</text>
		</g>
		<g transform="translate(596, 0)">
			<line class="st11" x1="128.7" y1="142.3" x2="128.7" y2="148.3"/>
			<text transform="matrix(1 0 0 1 68.8181 159.864)" class="st14 st15">2015</text>
		</g>
		<g transform="translate(688, 0)">
			<line class="st11" x1="128.7" y1="142.3" x2="128.7" y2="148.3"/>
			<text transform="matrix(1 0 0 1 68.8181 159.864)" class="st14 st15">2016</text>
		</g>
		<g transform="translate(779, 0)">
			<line class="st11" x1="128.7" y1="142.3" x2="128.7" y2="148.3"/>
			<text transform="matrix(1 0 0 1 68.8181 159.864)" class="st14 st15">2017</text>
		</g>
		<g transform="translate(871, 0)">
			<line class="st11" x1="128.7" y1="142.3" x2="128.7" y2="142.3"/>
			<text transform="matrix(1 0 0 1 68.8181 159.864)" class="st14 st15">2018</text>
		</g>
		<path class="st11" d="M82.7,148.3v-6h915.8v6"/>
	</g>
</g>
<path class="st18" d="M913.2,93.9l92,268.4"/>
<path class="st18" d="M822.2,208.4l91-114.5"/>
<path class="st18" d="M730.2,299.1l92-90.8"/>
<path class="st18" d="M638.2,386l92-86.8"/>
<path class="st18" d="M547.2,421.5l91-35.5"/>
<path class="st18" d="M455.2,425.4l92-3.9"/>
<path class="st18" d="M364.2,457l91-31.6"/>
<path class="st18" d="M272.2,437.3l92,19.7"/>
<path class="st18" d="M180.2,484.6l92-47.4"/>
<path class="st19" d="M1049,602.5"/>
<rect x="153.4" y="442.7" class="st20" width="43" height="22.6"/>
<rect x="250.7" y="414.1" class="st20" width="43" height="22.6"/>
<rect x="342.9" y="422.3" class="st20" width="43" height="22.6"/>
<rect x="433.7" y="405.4" class="st20" width="43" height="22.6"/>
<rect x="525.7" y="392.4" class="st20" width="43" height="22.6"/>
<rect x="615.7" y="355" class="st20" width="43" height="22.6"/>
<rect x="706.7" y="274.8" class="st20" width="43" height="22.6"/>
<rect x="793.6" y="185.2" class="st20" width="43" height="22.6"/>
<rect x="890.7" y="71.3" class="st20" width="43" height="22.6"/>
<rect x="996.4" y="351.8" class="st20" width="43" height="22.6"/>
</svg>
