<?xml version="1.0" encoding="UTF-8" standalone="no"?>
<svg width="302px" height="300px" viewBox="0 0 302 300" version="1.1" xmlns="http://www.w3.org/2000/svg" xmlns:xlink="http://www.w3.org/1999/xlink">
    <!-- Generator: Sketch 40 (33762) - http://www.bohemiancoding.com/sketch -->
    <title>planet</title>
    <desc>Created with Sketch.</desc>
    <defs></defs>
    <g id="Page-1" stroke="none" stroke-width="1" fill="none" fill-rule="evenodd">
        <g id="planet" transform="translate(3.000000, 3.000000)">
            <path d="M109.4542,164.4359 C104.2242,161.0799 105.7172,159.7659 101.4542,159.4359 C97.1912,159.1059 97.5642,158.8059 94.4542,163.4359 C91.3442,168.0659 92.4872,166.3639 89.4542,172.4359 C86.4212,178.5079 84.5192,181.7459 84.4542,185.4359 C84.3842,189.4559 85.8162,194.1359 87.4542,196.4359 C91.1342,201.5979 94.8992,206.4989 96.4542,209.4359 C98.0092,212.3729 114.7642,222.8709 115.4542,227.4359 C116.1442,232.0009 115.2642,262.8679 116.4542,268.4359 C117.7202,274.3659 119.2142,278.5479 121.4542,279.4359 C121.9542,279.6359 122.0872,281.5409 122.4542,275.4359 C122.4542,275.4359 124.4282,266.4899 127.4542,265.4359 C130.4802,264.3819 140.8042,253.9359 143.4542,251.4359 C146.1042,248.9359 153.7782,237.5739 157.4542,235.4359 C160.2332,233.6529 163.2682,232.3039 166.4542,231.4359 C170.0542,230.4009 170.8962,231.9039 172.4542,225.4359 C174.0122,218.9679 175.0342,221.2939 174.4542,221.4359 C168.6842,222.8519 170.2712,226.0159 160.4542,219.4359 C150.0982,212.4929 165.4542,194.3559 165.4542,191.4359 C165.4602,186.9159 165.5262,185.4359 162.4542,181.4359 C158.9922,176.9299 153.9972,178.8719 150.4542,179.4359 C146.0542,180.1359 131.8092,180.6259 126.4542,179.4359 C121.1672,178.2599 128.6912,162.9159 124.3642,162.1659 C120.9342,161.0809 121.0842,164.7059 116.4542,164.4359 C114.9912,164.3509 110.0042,164.7879 109.4542,164.4359 L109.4542,164.4359 Z M127.3342,20.9059 C127.3572,20.8819 133.6772,12.1459 135.3112,15.4689 C136.9212,18.7419 135.5512,19.5319 138.4542,21.4359 C141.3572,23.3399 139.8142,20.8489 143.4542,28.4359 C147.0942,36.0229 150.6172,42.4499 153.3842,42.3739 C156.1512,42.2979 153.1622,38.5669 156.8742,35.7609 C160.5862,32.9549 160.1742,32.2479 162.9822,30.5179 C165.7902,28.7879 166.8482,26.6179 163.8542,21.7779 C160.8602,16.9379 161.8072,15.3939 157.7472,13.0399 C153.6872,10.6859 150.7252,10.8019 147.2772,11.2919 C143.8292,11.7819 139.3972,12.1719 136.0612,11.2919 C132.7252,10.4119 126.6812,12.0479 124.7182,13.0399 C122.7552,14.0319 110.7582,13.9139 110.7582,13.9139 C110.7582,13.9139 106.3612,43.3689 127.3352,20.9039 L127.3342,20.9059 Z M205.4542,22.4359 C202.4262,21.3459 199.2942,18.0959 200.9002,20.5059 C203.7002,24.6979 207.6142,25.3859 209.3202,28.4109 C211.2972,31.9109 218.3782,30.8309 219.4542,33.4359 C221.0722,37.3509 222.1142,44.6679 218.4542,44.4359 C214.7942,44.2039 215.4542,47.4359 215.4542,47.4359 C215.4542,47.4359 223.5172,51.5829 225.4542,53.4359 C227.3912,55.2889 230.1072,56.7299 231.4542,59.4359 C232.5012,61.6099 232.8512,64.0549 232.4542,66.4359 C232.2842,67.8619 227.2882,72.2229 228.4542,73.4359 C231.5742,76.6809 231.1862,77.1659 239.4542,76.4359 C247.7222,75.7059 248.6542,66.8359 254.4542,66.4359 C260.2542,66.0359 263.9712,76.7359 264.4542,78.4359 C272.1802,105.6909 238.4542,92.9809 232.4542,106.4359 C230.6262,110.5359 231.7682,112.7059 230.1042,115.6189 C228.3342,118.7189 227.0842,120.7809 230.4542,126.4359 C233.8702,132.1659 229.9682,142.2489 233.4542,146.4359 C236.9402,150.6229 240.5842,148.4239 245.4542,152.4359 C250.3242,156.4479 252.9012,150.6299 254.1642,148.7179 C256.8742,144.6119 261.8122,145.2919 263.4542,143.4359 C265.2882,141.3629 269.3292,140.6209 272.4542,142.4359 C275.5792,144.2509 277.1602,147.6879 279.4542,150.4359 C281.0622,152.7289 283.6372,120.2829 266.0862,78.1459 C244.9342,48.3609 211.4962,24.6129 205.4542,22.4359 L205.4542,22.4359 Z M111.5682,70.6859 C111.2882,72.2979 110.4152,73.0179 108.4542,75.4359 C105.8722,78.6209 106.5672,79.5109 105.4542,80.4359 C101.9692,83.3309 102.8102,83.2499 100.4542,86.4359 C98.4702,89.3889 96.1182,92.0769 93.4542,94.4359 C96.9842,91.3189 87.1592,101.5609 83.4542,98.4359 C78.7782,94.4919 74.8102,97.7439 71.4542,99.4359 C68.4042,100.9729 65.9392,98.6159 60.7992,98.4759 C57.9992,98.4019 54.4752,97.4159 51.4542,100.4359 C48.4332,103.4559 46.4242,109.2609 46.4542,107.4359 C46.5242,103.0719 47.8542,100.7109 46.4542,100.4359 C45.0542,100.1609 45.3212,89.2429 45.4542,91.4359 C45.3542,89.8759 40.5012,87.6899 40.4542,82.4359 C40.4382,80.6879 41.8342,77.5559 42.4542,74.4359 C43.2362,70.1219 44.9412,66.0279 47.4542,62.4359 C49.8212,59.1359 57.4062,52.8259 60.4542,48.4359 C63.4842,44.0719 68.1622,42.4359 72.5662,37.0219 C77.5022,30.9519 75.1302,29.7919 77.4542,27.4359 C79.8222,25.0359 81.2422,21.1409 87.5542,20.7359 C91.9612,20.4509 83.6542,26.6919 90.4542,27.4359 C97.3442,28.1919 91.0542,28.3079 98.4542,28.4359 C105.8542,28.5639 114.6112,29.9589 104.4542,31.4359 C98.8002,31.4679 95.3362,32.6559 92.4542,35.4359 C89.8542,37.9359 88.4542,44.4359 88.4542,44.4359 C88.4542,44.4359 95.9172,49.9759 96.4542,52.4359 C96.9912,54.8959 100.7872,56.3739 103.4542,58.4359 C106.1212,60.4979 107.3942,61.0299 110.4542,60.4359 C113.5142,59.8419 116.6972,52.6909 119.4542,51.4359 C122.2112,50.1809 128.3392,54.6459 129.6772,56.7829 C131.4002,59.5369 119.6872,57.0709 117.5472,59.4329 C117.5472,59.4359 111.8742,68.9259 111.5672,70.6859 L111.5682,70.6859 Z" id="Fill-3" fill="#F3FAF9"></path>
            <path d="M157.4542,164.4359 C157.4542,164.4359 161.4662,171.5779 167.4542,172.4359 L157.4542,164.4359 Z M83.4542,165.4359 L73.4542,163.4359 C73.4542,163.4359 67.5542,159.5759 65.4542,156.4359 C64.1462,154.4839 63.1442,151.4689 59.4542,149.4359 C55.7642,147.4029 52.4542,140.4359 52.4542,140.4359 C52.4542,140.4359 47.9672,136.7519 45.4542,136.4359 C42.9412,136.1199 40.9542,125.7729 40.9542,125.7729 C39.2252,123.5189 38.3032,120.7489 38.3362,117.9079 C38.5862,113.5509 40.8582,95.7079 39.4542,95.4359 C38.0502,95.1639 35.5842,101.7359 35.7182,103.9259 C35.8522,106.1159 28.3542,110.6179 26.2282,113.0429 C24.1022,115.4679 26.2282,105.1779 26.2282,105.1779 L27.1012,99.0609 C27.1012,99.0609 30.7842,90.1639 31.4542,86.4359 C32.1792,82.4009 34.0402,81.6819 33.8642,78.2059 C33.7042,75.0519 33.6972,66.4119 38.4542,61.4359 C41.2542,58.5029 51.4062,48.8259 54.4542,44.4359 C57.4842,40.0719 60.7842,39.1359 65.6372,34.1259 C70.8312,28.7599 67.1792,23.9259 69.4542,21.4359 C71.7292,18.9459 86.5402,12.6739 92.4542,10.4359 C98.3842,8.1919 99.2782,12.8819 96.4542,14.4359 C93.6302,15.9899 95.0542,17.4099 95.0542,17.4099 C95.9452,18.7299 95.9452,20.4599 95.0542,21.7799 C93.5922,24.3339 98.5442,21.7799 98.5442,21.7799 C98.5442,21.7799 102.7282,17.0499 106.3972,17.4099 C107.1412,17.3929 107.8632,17.6619 108.4142,18.1629 C108.9892,16.6409 109.7792,15.2099 110.7602,13.9129 C110.7602,13.9129 122.7602,14.0329 124.7202,13.0399 C126.6802,12.0469 132.7272,10.4119 136.0642,11.2919 C139.4012,12.1719 144.8302,10.7819 148.2792,10.2919 C151.7282,9.8019 154.6892,9.6869 158.7492,12.0399 C162.8092,14.3929 161.8642,15.9399 164.8572,20.7799 C167.8502,25.6199 168.7932,27.7879 165.9852,29.5179 C163.1772,31.2479 163.5922,32.9559 159.8792,35.7609 C156.1662,38.5659 157.1562,45.2989 154.3892,45.3739 C151.6222,45.4489 144.9422,36.3579 141.3012,28.7739 C137.6602,21.1899 138.0962,22.8139 135.1932,20.9089 C132.2902,19.0039 136.0692,19.7409 134.3212,16.5389 C132.5732,13.3369 127.3412,20.9089 127.3412,20.9089 C125.3852,21.5309 123.4082,22.0879 121.4142,22.5769 C121.6392,22.6069 121.8582,22.6469 122.1042,22.6569 C125.2582,22.8249 125.4042,22.9749 128.2142,26.1569 C131.0242,29.3389 132.5742,29.6569 132.5742,29.6569 L133.4472,34.9029 L129.9542,34.9029 C130.1832,36.6429 130.1832,38.4059 129.9542,40.1459 C129.5662,42.8709 126.5442,40.8619 123.8462,40.1459 C121.1482,39.4299 118.7042,36.0899 116.8662,34.0279 C115.0282,31.9659 113.2782,33.1919 113.3762,35.7759 C113.4742,38.3599 107.3962,37.5239 107.3962,37.5239 C107.3962,37.5239 101.0132,38.5069 97.7962,40.1459 C94.5792,41.7849 99.5402,46.2629 99.5402,46.2629 C99.5402,46.2629 105.1102,48.9229 105.6482,51.3809 C106.1862,53.8389 109.1382,53.1279 109.1382,53.1279 L108.2662,47.8849 L114.2462,41.0189 C114.2462,41.0189 121.5962,41.5269 122.9712,43.6409 C124.3462,45.7549 129.3342,47.1409 129.3342,47.1409 L132.8242,48.8889 L138.0602,53.2589 C138.0602,53.2589 141.9282,57.2959 141.5502,60.2489 C141.1722,63.2019 141.6772,63.7489 141.6772,63.7489 C141.6772,63.7489 142.9872,64.7289 145.1672,66.3719 C147.3472,68.0149 146.1842,70.0449 146.9122,72.4889 C147.6402,74.9329 142.5502,70.7419 142.5502,70.7419 L134.3152,68.9939 L136.0622,65.4939 C135.2732,64.3829 133.7922,64.0119 132.5722,64.6189 C130.5202,65.7189 129.0822,66.3669 129.0822,66.3669 L123.8462,64.6199 L120.3562,66.3679 L123.8462,66.3679 L126.4642,68.1179 L131.7002,68.9909 L131.7002,75.9809 L124.7202,75.9809 C121.8472,76.5589 118.9242,76.8519 115.9942,76.8559 C114.5042,76.7659 109.3872,81.9499 117.1222,84.0989 C120.3662,84.9989 118.8082,87.3529 115.3772,86.7219 C111.3452,85.9799 109.5112,88.4219 108.3972,89.3439 C104.9122,92.2389 104.0342,94.8379 101.6772,98.0239 C99.3902,101.1239 96.1052,101.1859 92.6912,104.1999 C89.2772,107.2139 86.5592,107.8769 86.3292,111.8139 C85.9822,117.7679 83.7632,119.6619 80.2222,119.6789 C76.6812,119.6959 79.3902,113.6539 79.3492,109.1909 C79.3082,104.7279 72.1292,105.2269 68.8792,106.5689 C65.6292,107.9109 58.3792,106.3739 55.7912,107.4429 C53.2032,108.5119 53.4712,115.9129 51.4282,117.0549 C49.3852,118.1969 51.2982,125.3049 51.4282,128.4149 C51.5582,131.5249 58.4082,129.2899 58.4082,129.2899 L61.0262,122.2999 L68.0062,121.4249 L69.7512,127.5419 C69.7512,127.5419 65.9812,135.4489 66.2612,138.0279 C66.5412,140.6069 70.5292,139.8019 74.1142,139.7779 C77.6992,139.7539 78.6712,140.8279 78.4772,142.3979 C78.2832,143.9679 74.6612,150.1279 74.1132,152.0109 C73.5652,153.8939 76.2772,154.8409 78.4572,156.4309 C80.6372,158.0209 85.6302,157.1569 86.3292,159.8509 L83.4542,165.4359 Z M275.4542,208.4359 C275.3322,208.1659 270.6222,207.4199 270.4322,207.0459 C268.4552,203.1589 274.7092,193.5459 274.7942,189.5679 C274.8792,185.5899 277.1112,173.0299 274.7942,166.8479 C272.4772,160.6659 273.4442,153.7199 271.3042,153.7379 C269.1642,153.7559 268.6872,149.3679 268.6872,149.3679 C268.6872,149.3679 264.6242,151.6359 263.4542,154.6119 C262.2842,157.5879 256.1442,157.1219 253.8542,157.2339 C251.5642,157.3459 245.3792,163.8679 240.5102,159.8539 C235.6412,155.8399 228.2902,153.5539 224.8052,149.3689 C221.3202,145.1839 223.8552,131.5049 220.4452,125.7689 C217.0352,120.0329 221.9452,111.8619 223.9352,109.1689 C225.9252,106.4759 222.0502,108.2989 223.0622,103.9259 C223.5822,101.6719 229.9802,98.3459 234.4562,94.4359 C236.6262,92.5359 257.8792,89.4459 258.0362,83.5599 C258.0712,82.2229 255.7442,71.9269 254.4562,74.4359 C250.3462,82.4479 241.1342,84.3419 240.4562,84.4359 C233.7012,85.3759 226.5962,87.6739 224.8062,83.8259 C223.0162,79.9779 220.1342,83.1209 218.7002,80.3259 C217.2662,77.5309 217.5882,71.8179 218.0822,68.9659 C218.5762,66.1139 224.9272,65.7289 222.4452,61.9739 C219.9632,58.2189 212.6022,55.4739 209.3552,54.9839 C206.1082,54.4939 201.9752,50.6979 200.6312,47.9919 C199.2872,45.2859 199.9512,42.8539 198.0132,41.0019 C196.0752,39.1499 198.8852,35.7569 198.8852,35.7569 C198.8852,35.7569 204.8232,40.7709 208.4852,41.0029 C212.1472,41.2349 212.9322,35.8349 210.2302,36.6329 C207.5282,37.4309 203.2932,33.5329 200.6302,30.5159 C197.9672,27.4989 192.7302,23.1079 190.1602,19.1559 C187.5902,15.2039 190.3272,7.6759 193.4552,8.4359 C201.2952,10.3359 250.0302,32.4259 273.2082,77.8809 C307.0242,144.2009 279.4672,201.1959 275.4542,208.4359 L275.4542,208.4359 Z" id="Stroke-7" stroke="#2596C7" stroke-width="6" stroke-linecap="round" stroke-linejoin="round"></path>
            <path d="M133.041016,156.4359 C126.569016,153.6039 120.5822,154.4279 117.4542,156.4359 C109.4142,161.1479 112.6042,152.4159 102.4542,152.4359 C95.1062,151.7259 93.9542,152.4259 92.4542,156.4359 C92.0907766,157.405307 92.0302811,163.921659 92.0833367,171.192972 C89.6841134,174.966116 81.4144488,178.757913 79.4542,180.4359 C77.1902,182.3739 75.8962,178.1359 78.4542,191.4359 C81.0122,204.7359 85.7642,207.2189 90.4542,213.4359 C95.1442,219.6529 106.4542,222.8659 107.4542,228.4359 C108.4542,234.0059 107.1822,261.5199 109.4542,266.4359 C111.7262,271.3519 107.9772,284.8679 126.4542,286.4359 C144.9312,288.0039 127.2542,281.5939 127.4542,278.4359 C127.6542,275.2779 133.4782,269.1919 136.4542,267.4359 C139.4302,265.6799 151.0372,255.2909 152.4542,252.4359 C153.8712,249.5809 161.8042,239.0259 165.4542,238.4359 C169.1042,237.8459 174.615984,237.244172 175.333984,231.576172 C176.051984,225.908172 173.87793,218.402344 173.87793,218.402344" id="Combined-Shape" stroke="#2596C7" stroke-width="6" stroke-linecap="round" stroke-linejoin="round"></path>
            <path d="M153.1542,144.5559 L157.7772,172.4879 L132.6242,172.4879 L137.2492,144.5429 C131.8672,140.1459 131.0682,132.2189 135.4642,126.8359 C139.8612,121.4539 147.7892,120.6549 153.1712,125.0519 C158.5542,129.4479 159.3522,137.3759 154.9562,142.7579 C154.4172,143.4169 153.8142,144.0199 153.1542,144.5569 L153.1542,144.5559 L153.1542,144.5559 Z" id="Stroke-9" stroke="#2596C7" stroke-width="7" stroke-linecap="round" stroke-linejoin="round"></path>
            <path d="M257.9802,233.461 C260.9532,230.428 262.9802,228.327 263.1872,228.031 C309.0552,162.747 293.3152,72.64 228.0312,26.771 C162.7462,-19.097 72.6392,-3.357 26.7712,61.928 C-19.0968,127.212 -3.3568,217.319 61.9272,263.187 C112.0752,298.421 178.9962,298.178 228.8872,262.581 C229.1552,262.389 231.2972,260.287 235.5812,256.013" id="Stroke-11" stroke="#2596C7" stroke-width="7" stroke-linecap="round" stroke-linejoin="round"></path>
            <path d="M273.6942,254.6919 C268.9752,249.9729 261.3252,249.9729 256.6062,254.6919 C251.8872,259.4109 251.8872,267.0609 256.6062,271.7799 C261.3252,276.4989 268.9752,276.4989 273.6942,271.7799 C278.4132,267.0619 278.4142,259.4109 273.6962,254.6919 L273.6942,254.6899 L273.6942,254.6919 L273.6942,254.6919 Z M286.3072,284.3919 C274.6322,296.0779 255.6942,296.0869 244.0082,284.4109 C235.3192,275.7299 232.8202,262.6199 237.7072,251.3519 L205.2692,218.9139 L193.9172,230.2639 C191.1832,232.9979 186.7512,232.9979 184.0172,230.2639 C181.2832,227.5299 181.2832,223.0979 184.0172,220.3639 L195.3672,209.0139 L188.2672,201.9139 L176.9172,213.2639 C174.1832,215.9979 169.7512,215.9979 167.0172,213.2639 C164.2832,210.5299 164.2832,206.0979 167.0172,203.3639 L178.3672,192.0139 L171.0992,184.7439 C166.7992,180.4439 166.1522,174.7309 170.4492,170.4339 C174.3802,166.2919 180.9252,166.1209 185.0672,170.0519 C185.1982,170.1759 185.3252,170.3029 185.4492,170.4339 L251.4492,236.4339 C261.9852,230.4839 277.3662,233.1419 286.3012,242.0769 C297.9882,253.7589 297.9932,272.7029 286.3112,284.3899 C286.3102,284.3919 286.3082,284.3929 286.3072,284.3939 L286.3072,284.3919 L286.3072,284.3919 Z" id="Stroke-13" stroke="#E82366" stroke-width="7" stroke-linecap="round" stroke-linejoin="round"></path>
        </g>
    </g>
</svg>