<?xml version="1.0" encoding="utf-8"?>
<!-- Generator: Adobe Illustrator 13.0.2, SVG Export Plug-In  -->
<!DOCTYPE svg PUBLIC "-//W3C//DTD SVG 1.1//EN" "http://www.w3.org/Graphics/SVG/1.1/DTD/svg11.dtd" [
	<!ENTITY ns_flows "http://ns.adobe.com/Flows/1.0/">
]>
<svg version="1.1"
	 xmlns="http://www.w3.org/2000/svg" xmlns:xlink="http://www.w3.org/1999/xlink" xmlns:a="http://ns.adobe.com/AdobeSVGViewerExtensions/3.0/"
	 x="0px" y="0px" width="103px" height="24px" viewBox="-0.439 -0.775 103 24" enable-background="new -0.439 -0.775 103 24"
	 xml:space="preserve">
<defs>
</defs>
<g>
	<path fill-rule="evenodd" clip-rule="evenodd" fill="#4B4B4B" d="M2.526,0h97.243c1.396,0,2.527,1.13,2.527,2.526v17.681
		c0,1.396-1.131,2.525-2.527,2.525H2.526C1.131,22.732,0,21.602,0,20.207V2.526C0,1.13,1.131,0,2.526,0"/>
</g>
<path fill-rule="evenodd" clip-rule="evenodd" fill="#FFFFFF" d="M99.769,1.263H2.526c-0.698,0-1.263,0.565-1.263,1.263v17.681
	c0,0.697,0.565,1.263,1.263,1.263h97.243c0.698,0,1.263-0.565,1.263-1.263V2.526C101.032,1.828,100.467,1.263,99.769,1.263"/>
<path fill="#4B4B4B" d="M23.207,6.099l-0.505,0.144c-0.433,0.091-0.596,0.271-0.758,0.776l-3.248,10.394
	c-0.054,0.162-0.162,0.271-0.307,0.271H16.26c-0.144,0-0.27-0.108-0.306-0.271l-2.021-6.767l-1.949,6.767
	c-0.036,0.162-0.162,0.271-0.307,0.271H9.548c-0.144,0-0.252-0.108-0.307-0.271L5.759,6.839c-0.145-0.451-0.361-0.56-0.83-0.65
	l-0.523-0.09c-0.144-0.018-0.235-0.09-0.235-0.235V5.287c0-0.145,0.091-0.235,0.235-0.235h6.622c0.144,0,0.234,0.09,0.234,0.235
	v0.577c0,0.145-0.09,0.199-0.234,0.217l-0.523,0.091C10.18,6.226,9.963,6.37,9.963,6.641c0,0.09,0.019,0.179,0.054,0.288l1.66,5.611
	l1.985-7.217c0.036-0.162,0.163-0.271,0.307-0.271h2.057c0.144,0,0.252,0.109,0.307,0.271l2.273,7.488l1.552-5.43
	c0.071-0.236,0.144-0.596,0.144-0.777c0-0.27-0.163-0.361-0.541-0.432l-0.452-0.073c-0.144-0.018-0.233-0.09-0.233-0.235V5.287
	c0-0.145,0.089-0.235,0.233-0.235h3.898c0.144,0,0.234,0.09,0.234,0.235v0.577C23.441,6.009,23.351,6.063,23.207,6.099
	 M36.253,17.683h-7.417c-0.143,0-0.235-0.09-0.235-0.234v-0.577c0-0.145,0.109-0.235,0.254-0.235l0.667-0.071
	c0.524-0.036,0.65-0.325,0.488-0.758l-0.632-1.66h-4.403l-0.325,0.775c-0.126,0.325-0.234,0.632-0.234,0.867
	c0,0.541,0.252,0.686,0.812,0.775l0.523,0.071c0.145,0.019,0.235,0.091,0.235,0.235v0.577c0,0.145-0.09,0.234-0.235,0.234h-4.276
	c-0.144,0-0.235-0.09-0.235-0.234v-0.577c0-0.145,0.091-0.217,0.235-0.235l0.379-0.071c0.469-0.09,0.703-0.361,0.956-0.975
	l4.258-10.267c0.072-0.162,0.162-0.271,0.307-0.271h2.797c0.144,0,0.253,0.109,0.306,0.271l4.295,10.646
	c0.126,0.325,0.325,0.487,0.722,0.541l0.758,0.126c0.143,0.019,0.234,0.091,0.234,0.235v0.577
	C36.487,17.593,36.396,17.683,36.253,17.683z M27.285,8.409l-1.805,4.439h3.429L27.285,8.409z M47.8,17.359
	c-0.866,0.36-2.4,0.667-4.06,0.667c-4.601,0-7.65-2.761-7.65-6.73c0-3.898,3.23-6.586,7.812-6.586c1.191,0,2.707,0.199,3.735,0.522
	c0.379,0.127,0.488,0.253,0.488,0.777V8.77c0,0.144-0.091,0.235-0.235,0.235h-0.974c-0.199,0-0.361-0.072-0.433-0.253l-0.487-1.209
	c-0.451-1.119-0.993-1.606-2.111-1.606c-1.823,0-2.851,2.039-2.851,5.413c0,3.392,1.064,5.449,2.995,5.449
	c1.118,0,1.786-0.505,2.093-1.354l0.541-1.552c0.073-0.198,0.235-0.252,0.433-0.252h1.011c0.144,0,0.235,0.09,0.235,0.233v2.6
	C48.342,17.106,48.269,17.16,47.8,17.359z M66.06,17.683h-5.161c-0.271,0-0.469-0.108-0.595-0.343L57.2,11.692l-0.938,0.704v3.339
	c0,0.433,0.217,0.612,0.541,0.704l0.632,0.197c0.162,0.036,0.253,0.091,0.253,0.235v0.577c0,0.145-0.091,0.234-0.235,0.234h-7.109
	c-0.144,0-0.234-0.09-0.234-0.234v-0.577c0-0.145,0.09-0.217,0.234-0.235l0.794-0.18c0.541-0.126,0.722-0.307,0.722-0.812V7.092
	c0-0.596-0.271-0.722-0.83-0.849l-0.686-0.144C50.2,6.081,50.11,6.009,50.11,5.864V5.287c0-0.145,0.09-0.235,0.234-0.235h7.109
	c0.144,0,0.235,0.09,0.235,0.235v0.577c0,0.145-0.091,0.199-0.253,0.235l-0.379,0.127c-0.523,0.144-0.794,0.252-0.794,0.83v3.5
	l3.861-3.122c0.488-0.378,0.794-0.667,0.794-0.866c0-0.216-0.144-0.306-0.379-0.36l-0.486-0.109
	c-0.145-0.018-0.235-0.09-0.235-0.235V5.287c0-0.145,0.09-0.235,0.235-0.235h4.979c0.144,0,0.235,0.09,0.235,0.235v0.577
	c0,0.145-0.091,0.199-0.235,0.235l-0.776,0.217c-0.379,0.09-0.739,0.252-1.172,0.65l-2.472,2.165l3.988,6.658
	c0.27,0.45,0.576,0.631,0.92,0.702l0.541,0.145c0.144,0.036,0.234,0.091,0.234,0.235v0.577
	C66.294,17.593,66.204,17.683,66.06,17.683z M79.267,17.683H67.449c-0.144,0-0.235-0.09-0.235-0.234v-0.577
	c0-0.145,0.091-0.217,0.235-0.235l0.812-0.18c0.505-0.109,0.704-0.289,0.704-0.812V7.092c0-0.541-0.217-0.704-0.704-0.813
	l-0.812-0.18c-0.144-0.018-0.235-0.09-0.235-0.235V5.287c0-0.145,0.091-0.235,0.235-0.235h11.349c0.145,0,0.234,0.09,0.234,0.235
	v3.176c0,0.144-0.089,0.234-0.234,0.234h-0.775c-0.181,0-0.343-0.054-0.434-0.252l-0.704-1.372c-0.234-0.45-0.559-0.595-1.28-0.595
	h-2.238v3.952h1.136c0.325,0,0.56-0.126,0.651-0.505l0.126-0.596c0.036-0.162,0.09-0.253,0.216-0.253h0.776
	c0.145,0,0.235,0.091,0.235,0.235v3.608c0,0.163-0.09,0.253-0.235,0.253h-0.776c-0.126,0-0.18-0.09-0.216-0.253l-0.126-0.595
	c-0.091-0.396-0.326-0.505-0.651-0.505h-1.136v4.403h2.635c0.83,0,1.262-0.181,1.389-0.65l0.487-1.768
	c0.054-0.181,0.181-0.235,0.307-0.235h1.064c0.163,0,0.252,0.09,0.252,0.307v3.573C79.501,17.593,79.412,17.683,79.267,17.683z
	 M96.173,17.683h-4.944c-0.27,0-0.378-0.144-0.45-0.324l-2.183-5.035h-1.354v3.357c0,0.559,0.108,0.666,0.505,0.775l0.632,0.18
	c0.162,0.036,0.253,0.091,0.253,0.235v0.577c0,0.145-0.091,0.234-0.234,0.234h-7.056c-0.144,0-0.235-0.09-0.235-0.234v-0.577
	c0-0.145,0.091-0.217,0.235-0.235l0.812-0.18c0.505-0.109,0.704-0.289,0.704-0.775V7.092c0-0.505-0.163-0.686-0.631-0.794
	l-0.885-0.199c-0.144-0.018-0.235-0.09-0.235-0.235V5.287c0-0.145,0.091-0.235,0.235-0.235h8.391c3.283,0,5.069,1.246,5.069,3.537
	c0,1.498-0.991,2.545-2.309,3.05l2.093,4.06c0.216,0.415,0.433,0.614,0.776,0.703l0.794,0.234c0.162,0.036,0.252,0.091,0.252,0.235
	v0.577C96.408,17.593,96.318,17.683,96.173,17.683z M88.18,6.208h-0.938v4.763h0.686c1.264,0,2.129-0.812,2.129-2.382
	C90.057,7.073,89.209,6.208,88.18,6.208z"/>
</svg>
